0
SECTION
2
HEADER
9
$HANDSEED
5
339
9
$INSUNITS
70
4
9
$ACADVER
1
AC1021
0
ENDSEC
0
SECTION
2
CLASSES
0
ENDSEC
0
SECTION
2
TABLES
0
TABLE
2
LTYPE
5
337
330
0
100
AcDbSymbolTable
70
5
0
LTYPE
5
2
330
337
100
AcDbSymbolTableRecord
100
AcDbLinetypeTableRecord
2
CONTINUOUS
3
______
70
0
72
65
73
0
40
0
0
LTYPE
5
3
330
337
100
AcDbSymbolTableRecord
100
AcDbLinetypeTableRecord
2
DASHED
3
_ _ _ 
70
0
72
65
73
2
40
10
49
5
74
0
49
-5
74
0
0
LTYPE
5
4
330
337
100
AcDbSymbolTableRecord
100
AcDbLinetypeTableRecord
2
DOTTED
3
. . . 
70
0
72
65
73
2
40
5
49
0
74
0
49
-5
74
0
0
LTYPE
5
6
330
337
100
AcDbSymbolTableRecord
100
AcDbLinetypeTableRecord
2
ByBlock
3

70
0
72
65
73
0
40
0
0
LTYPE
5
7
330
337
100
AcDbSymbolTableRecord
100
AcDbLinetypeTableRecord
2
ByLayer
3

70
0
72
65
73
0
40
0
0
ENDTAB
0
TABLE
2
LAYER
5
338
330
0
100
AcDbSymbolTable
70
37
0
LAYER
5
5
330
338
100
AcDbSymbolTableRecord
100
AcDbLayerTableRecord
2
0
62
7
70
0
6
CONTINUOUS
390
1
0
LAYER
5
16
330
338
100
AcDbSymbolTableRecord
100
AcDbLayerTableRecord
2
MARCO
62
7
70
0
6
CONTINUOUS
390
1
0
LAYER
5
1F
330
338
100
AcDbSymbolTableRecord
100
AcDbLayerTableRecord
2
MURO_REFUERZO
62
5
70
0
6
CONTINUOUS
390
1
0
LAYER
5
28
330
338
100
AcDbSymbolTableRecord
100
AcDbLayerTableRecord
2
COTAS_REFUERZO
62
2
70
0
6
CONTINUOUS
390
1
0
LAYER
5
69
330
338
100
AcDbSymbolTableRecord
100
AcDbLayerTableRecord
2
TITULO_REFUERZO
62
2
70
0
6
CONTINUOUS
390
1
0
LAYER
5
6E
330
338
100
AcDbSymbolTableRecord
100
AcDbLayerTableRecord
2
CONTORNO_INTERNO_INTERNO_TRIANGULO
62
6
70
0
6
CONTINUOUS
390
1
0
LAYER
5
74
330
338
100
AcDbSymbolTableRecord
100
AcDbLayerTableRecord
2
CONTORNO_INTERNO_INTERNO_RECTANGULO
62
6
70
0
6
CONTINUOUS
390
1
0
LAYER
5
79
330
338
100
AcDbSymbolTableRecord
100
AcDbLayerTableRecord
2
REFUERZO_PUNTOS
62
2
70
0
6
CONTINUOUS
390
1
0
LAYER
5
F8
330
338
100
AcDbSymbolTableRecord
100
AcDbLayerTableRecord
2
ESTRUCTURA_LEADERS
62
4
70
0
6
CONTINUOUS
390
1
0
LAYER
5
112
330
338
100
AcDbSymbolTableRecord
100
AcDbLayerTableRecord
2
ACERO_LEADERS
62
7
70
0
6
CONTINUOUS
390
1
0
LAYER
5
127
330
338
100
AcDbSymbolTableRecord
100
AcDbLayerTableRecord
2
MURO_DRENAJE
62
5
70
0
6
CONTINUOUS
390
1
0
LAYER
5
130
330
338
100
AcDbSymbolTableRecord
100
AcDbLayerTableRecord
2
SUELO_DRENAJE
62
3
70
0
6
DASHED
390
1
0
LAYER
5
132
330
338
100
AcDbSymbolTableRecord
100
AcDbLayerTableRecord
2
TUBO_PB
62
1
70
0
6
CONTINUOUS
390
1
0
LAYER
5
13F
330
338
100
AcDbSymbolTableRecord
100
AcDbLayerTableRecord
2
COTAS_DRENAJE
62
2
70
0
6
CONTINUOUS
390
1
0
LAYER
5
1B0
330
338
100
AcDbSymbolTableRecord
100
AcDbLayerTableRecord
2
TITULO_DRENAJE
62
2
70
0
6
CONTINUOUS
390
1
0
LAYER
5
1B5
330
338
100
AcDbSymbolTableRecord
100
AcDbLayerTableRecord
2
MURO_MC3D
62
7
70
0
6
CONTINUOUS
390
1
0
LAYER
5
1CF
330
338
100
AcDbSymbolTableRecord
100
AcDbLayerTableRecord
2
TITULO_MC3D
62
2
70
0
6
CONTINUOUS
390
1
0
LAYER
5
1D4
330
338
100
AcDbSymbolTableRecord
100
AcDbLayerTableRecord
2
MALLA_VERT_INTERIOR
62
3
70
0
6
CONTINUOUS
390
1
0
LAYER
5
1D5
330
338
100
AcDbSymbolTableRecord
100
AcDbLayerTableRecord
2
MALLA_HORIZ_INTERIOR
62
6
70
0
6
CONTINUOUS
390
1
0
LAYER
5
1D6
330
338
100
AcDbSymbolTableRecord
100
AcDbLayerTableRecord
2
MARCO_INTERIOR
62
7
70
0
6
CONTINUOUS
390
1
0
LAYER
5
212
330
338
100
AcDbSymbolTableRecord
100
AcDbLayerTableRecord
2
COTAS_INTERIOR
62
7
70
0
6
CONTINUOUS
390
1
0
LAYER
5
22B
330
338
100
AcDbSymbolTableRecord
100
AcDbLayerTableRecord
2
INFO_INTERIOR
62
2
70
0
6
CONTINUOUS
390
1
0
LAYER
5
230
330
338
100
AcDbSymbolTableRecord
100
AcDbLayerTableRecord
2
MALLA_VERT_EXTERIOR
62
3
70
0
6
CONTINUOUS
390
1
0
LAYER
5
231
330
338
100
AcDbSymbolTableRecord
100
AcDbLayerTableRecord
2
MALLA_HORIZ_EXTERIOR
62
6
70
0
6
CONTINUOUS
390
1
0
LAYER
5
232
330
338
100
AcDbSymbolTableRecord
100
AcDbLayerTableRecord
2
MARCO_EXTERIOR
62
7
70
0
6
CONTINUOUS
390
1
0
LAYER
5
26E
330
338
100
AcDbSymbolTableRecord
100
AcDbLayerTableRecord
2
COTAS_EXTERIOR
62
7
70
0
6
CONTINUOUS
390
1
0
LAYER
5
287
330
338
100
AcDbSymbolTableRecord
100
AcDbLayerTableRecord
2
INFO_EXTERIOR
62
2
70
0
6
CONTINUOUS
390
1
0
LAYER
5
28C
330
338
100
AcDbSymbolTableRecord
100
AcDbLayerTableRecord
2
MALLA_VERT_INFERIOR
62
4
70
0
6
CONTINUOUS
390
1
0
LAYER
5
28D
330
338
100
AcDbSymbolTableRecord
100
AcDbLayerTableRecord
2
MALLA_HORIZ_INFERIOR
62
6
70
0
6
CONTINUOUS
390
1
0
LAYER
5
28E
330
338
100
AcDbSymbolTableRecord
100
AcDbLayerTableRecord
2
MARCO_INFERIOR
62
7
70
0
6
CONTINUOUS
390
1
0
LAYER
5
2C2
330
338
100
AcDbSymbolTableRecord
100
AcDbLayerTableRecord
2
COTAS_INFERIOR
62
7
70
0
6
CONTINUOUS
390
1
0
LAYER
5
2DB
330
338
100
AcDbSymbolTableRecord
100
AcDbLayerTableRecord
2
INFO_INFERIOR
62
2
70
0
6
CONTINUOUS
390
1
0
LAYER
5
2E0
330
338
100
AcDbSymbolTableRecord
100
AcDbLayerTableRecord
2
MALLA_VERT_SUPERIOR
62
4
70
0
6
CONTINUOUS
390
1
0
LAYER
5
2E1
330
338
100
AcDbSymbolTableRecord
100
AcDbLayerTableRecord
2
MALLA_HORIZ_SUPERIOR
62
6
70
0
6
CONTINUOUS
390
1
0
LAYER
5
2E2
330
338
100
AcDbSymbolTableRecord
100
AcDbLayerTableRecord
2
MARCO_SUPERIOR
62
7
70
0
6
CONTINUOUS
390
1
0
LAYER
5
316
330
338
100
AcDbSymbolTableRecord
100
AcDbLayerTableRecord
2
COTAS_SUPERIOR
62
7
70
0
6
CONTINUOUS
390
1
0
LAYER
5
32F
330
338
100
AcDbSymbolTableRecord
100
AcDbLayerTableRecord
2
INFO_SUPERIOR
62
2
70
0
6
CONTINUOUS
390
1
0
ENDTAB
0
TABLE
2
VPORT
5
8
330
0
100
AcDbSymbolTable
70
1
0
VPORT
5
E
330
8
100
AcDbSymbolTableRecord
100
AcDbViewportTableRecord
2
*ACTIVE
40
1000
70
0
0
ENDTAB
0
TABLE
2
STYLE
5
9
330
0
100
AcDbSymbolTable
70
1
0
STYLE
5
F
330
9
100
AcDbSymbolTableRecord
100
AcDbTextStyleTableRecord
2
standard
70
0
40
0
41
1
50
0
71
0
42
1
3
txt
4

0
ENDTAB
0
TABLE
2
VIEW
5
A
330
0
100
AcDbSymbolTable
70
0
0
ENDTAB
0
TABLE
2
UCS
5
B
330
0
100
AcDbSymbolTable
70
0
0
ENDTAB
0
TABLE
2
APPID
5
C
330
0
100
AcDbSymbolTable
70
1
0
APPID
5
10
330
C
100
AcDbSymbolTableRecord
100
AcDbRegAppTableRecord
2
ACAD
70
0
0
ENDTAB
0
TABLE
2
DIMSTYLE
5
D
330
0
100
AcDbSymbolTable
100
AcDbDimStyleTable
70
0
71
1
0
ENDTAB
0
TABLE
2
BLOCK_RECORD
5
334
330
0
100
AcDbSymbolTable
70
2
0
BLOCK_RECORD
5
335
330
334
100
AcDbSymbolTableRecord
100
AcDbBlockTableRecord
2
*Model_Space
70
0
280
0
281
1
0
BLOCK_RECORD
5
336
330
334
100
AcDbSymbolTableRecord
100
AcDbBlockTableRecord
2
*Paper_Space
70
0
280
0
281
1
0
ENDTAB
0
ENDSEC
0
SECTION
2
BLOCKS
0
BLOCK
5
11
330
0
100
AcDbEntity
100
AcDbBlockBegin
2
*Model_Space
70
0
10
0
20
0
30
0
3
*Model_Space
1

0
ENDBLK
5
12
330
0
100
AcDbEntity
100
AcDbBlockEnd
0
BLOCK
5
13
330
0
100
AcDbEntity
100
AcDbBlockBegin
2
*Paper_Space
70
0
10
0
20
0
30
0
3
*Paper_Space
1

0
ENDBLK
5
14
330
0
100
AcDbEntity
100
AcDbBlockEnd
0
ENDSEC
0
SECTION
2
ENTITIES
0
LINE
5
17
330
11
100
AcDbEntity
100
AcDbLine
8
MARCO
10
0
20
0
30
0
11
51.4
21
0
31
0
0
LINE
5
18
330
11
100
AcDbEntity
100
AcDbLine
8
MARCO
10
51.4
20
0
30
0
11
51.4
21
36.4
31
0
0
LINE
5
19
330
11
100
AcDbEntity
100
AcDbLine
8
MARCO
10
51.4
20
36.4
30
0
11
0
21
36.4
31
0
0
LINE
5
1A
330
11
100
AcDbEntity
100
AcDbLine
8
MARCO
10
0
20
36.4
30
0
11
0
21
0
31
0
0
LINE
5
1B
330
11
100
AcDbEntity
100
AcDbLine
8
MARCO
10
0.6
20
0.6
30
0
11
50.8
21
0.6
31
0
0
LINE
5
1C
330
11
100
AcDbEntity
100
AcDbLine
8
MARCO
10
50.8
20
0.6
30
0
11
50.8
21
35.8
31
0
0
LINE
5
1D
330
11
100
AcDbEntity
100
AcDbLine
8
MARCO
10
50.8
20
35.8
30
0
11
0.6
21
35.8
31
0
0
LINE
5
1E
330
11
100
AcDbEntity
100
AcDbLine
8
MARCO
10
0.6
20
35.8
30
0
11
0.6
21
0.6
31
0
0
LINE
5
20
330
11
100
AcDbEntity
100
AcDbLine
8
MURO_REFUERZO
10
4.6
20
20.8
30
0
11
9.78
21
20.8
31
0
0
LINE
5
21
330
11
100
AcDbEntity
100
AcDbLine
8
MURO_REFUERZO
10
9.78
20
20.8
30
0
11
9.78
21
21.54
31
0
0
LINE
5
22
330
11
100
AcDbEntity
100
AcDbLine
8
MURO_REFUERZO
10
9.78
20
21.54
30
0
11
7.066666666666666
21
21.54
31
0
0
LINE
5
23
330
11
100
AcDbEntity
100
AcDbLine
8
MURO_REFUERZO
10
7.066666666666666
20
21.54
30
0
11
7.066666666666666
21
28.200000000000003
31
0
0
LINE
5
24
330
11
100
AcDbEntity
100
AcDbLine
8
MURO_REFUERZO
10
7.066666666666666
20
28.200000000000003
30
0
11
6.866666666666666
21
28.200000000000003
31
0
0
LINE
5
25
330
11
100
AcDbEntity
100
AcDbLine
8
MURO_REFUERZO
10
6.866666666666666
20
28.200000000000003
30
0
11
6.326666666666666
21
21.54
31
0
0
LINE
5
26
330
11
100
AcDbEntity
100
AcDbLine
8
MURO_REFUERZO
10
6.326666666666666
20
21.54
30
0
11
4.6
21
21.54
31
0
0
LINE
5
27
330
11
100
AcDbEntity
100
AcDbLine
8
MURO_REFUERZO
10
4.6
20
21.54
30
0
11
4.6
21
20.8
31
0
0
LINE
5
29
330
11
100
AcDbEntity
100
AcDbLine
8
COTAS_REFUERZO
10
4.6
20
20.8
30
0
11
4.6
21
19.900000000000002
31
0
0
LINE
5
2A
330
11
100
AcDbEntity
100
AcDbLine
8
COTAS_REFUERZO
10
9.78
20
20.8
30
0
11
9.78
21
19.900000000000002
31
0
0
LINE
5
2B
330
11
100
AcDbEntity
100
AcDbLine
8
COTAS_REFUERZO
10
4.6
20
20
30
0
11
9.78
21
20
31
0
0
LINE
5
2C
330
11
100
AcDbEntity
100
AcDbLine
8
COTAS_REFUERZO
10
4.6
20
20
30
0
11
4.6499999999999995
21
20.05
31
0
0
LINE
5
2D
330
11
100
AcDbEntity
100
AcDbLine
8
COTAS_REFUERZO
10
4.6
20
20
30
0
11
4.6499999999999995
21
19.95
31
0
0
LINE
5
2E
330
11
100
AcDbEntity
100
AcDbLine
8
COTAS_REFUERZO
10
9.78
20
20
30
0
11
9.729999999999999
21
20.05
31
0
0
LINE
5
2F
330
11
100
AcDbEntity
100
AcDbLine
8
COTAS_REFUERZO
10
9.78
20
20
30
0
11
9.729999999999999
21
19.95
31
0
0
TEXT
5
30
330
11
100
AcDbEntity
100
AcDbText
8
COTAS_REFUERZO
10
7.09
20
19.6
30
0
40
0.1
1
5.18m
50
0
100
AcDbText
0
LINE
5
31
330
11
100
AcDbEntity
100
AcDbLine
8
COTAS_REFUERZO
10
4.6
20
20.8
30
0
11
4.6
21
20.400000000000002
31
0
0
LINE
5
32
330
11
100
AcDbEntity
100
AcDbLine
8
COTAS_REFUERZO
10
6.326666666666666
20
20.8
30
0
11
6.326666666666666
21
20.400000000000002
31
0
0
LINE
5
33
330
11
100
AcDbEntity
100
AcDbLine
8
COTAS_REFUERZO
10
4.6
20
20.5
30
0
11
6.326666666666666
21
20.5
31
0
0
LINE
5
34
330
11
100
AcDbEntity
100
AcDbLine
8
COTAS_REFUERZO
10
4.6
20
20.5
30
0
11
4.6499999999999995
21
20.55
31
0
0
LINE
5
35
330
11
100
AcDbEntity
100
AcDbLine
8
COTAS_REFUERZO
10
4.6
20
20.5
30
0
11
4.6499999999999995
21
20.45
31
0
0
LINE
5
36
330
11
100
AcDbEntity
100
AcDbLine
8
COTAS_REFUERZO
10
6.326666666666666
20
20.5
30
0
11
6.276666666666666
21
20.55
31
0
0
LINE
5
37
330
11
100
AcDbEntity
100
AcDbLine
8
COTAS_REFUERZO
10
6.326666666666666
20
20.5
30
0
11
6.276666666666666
21
20.45
31
0
0
TEXT
5
38
330
11
100
AcDbEntity
100
AcDbText
8
COTAS_REFUERZO
10
5.363333333333333
20
20.1
30
0
40
0.1
1
2.27m
50
0
100
AcDbText
0
LINE
5
39
330
11
100
AcDbEntity
100
AcDbLine
8
COTAS_REFUERZO
10
7.066666666666666
20
20.8
30
0
11
7.066666666666666
21
20.400000000000002
31
0
0
LINE
5
3A
330
11
100
AcDbEntity
100
AcDbLine
8
COTAS_REFUERZO
10
9.78
20
20.8
30
0
11
9.78
21
20.400000000000002
31
0
0
LINE
5
3B
330
11
100
AcDbEntity
100
AcDbLine
8
COTAS_REFUERZO
10
7.066666666666666
20
20.5
30
0
11
9.78
21
20.5
31
0
0
LINE
5
3C
330
11
100
AcDbEntity
100
AcDbLine
8
COTAS_REFUERZO
10
7.066666666666666
20
20.5
30
0
11
7.116666666666666
21
20.55
31
0
0
LINE
5
3D
330
11
100
AcDbEntity
100
AcDbLine
8
COTAS_REFUERZO
10
7.066666666666666
20
20.5
30
0
11
7.116666666666666
21
20.45
31
0
0
LINE
5
3E
330
11
100
AcDbEntity
100
AcDbLine
8
COTAS_REFUERZO
10
9.78
20
20.5
30
0
11
9.729999999999999
21
20.55
31
0
0
LINE
5
3F
330
11
100
AcDbEntity
100
AcDbLine
8
COTAS_REFUERZO
10
9.78
20
20.5
30
0
11
9.729999999999999
21
20.45
31
0
0
TEXT
5
40
330
11
100
AcDbEntity
100
AcDbText
8
COTAS_REFUERZO
10
8.323333333333332
20
20.1
30
0
40
0.1
1
2.71m
50
0
100
AcDbText
0
LINE
5
41
330
11
100
AcDbEntity
100
AcDbLine
8
COTAS_REFUERZO
10
6.326666666666666
20
20.8
30
0
11
6.326666666666666
21
20.400000000000002
31
0
0
LINE
5
42
330
11
100
AcDbEntity
100
AcDbLine
8
COTAS_REFUERZO
10
7.066666666666666
20
20.8
30
0
11
7.066666666666666
21
20.400000000000002
31
0
0
LINE
5
43
330
11
100
AcDbEntity
100
AcDbLine
8
COTAS_REFUERZO
10
6.326666666666666
20
20.5
30
0
11
7.066666666666666
21
20.5
31
0
0
LINE
5
44
330
11
100
AcDbEntity
100
AcDbLine
8
COTAS_REFUERZO
10
6.326666666666666
20
20.5
30
0
11
6.376666666666666
21
20.55
31
0
0
LINE
5
45
330
11
100
AcDbEntity
100
AcDbLine
8
COTAS_REFUERZO
10
6.326666666666666
20
20.5
30
0
11
6.376666666666666
21
20.45
31
0
0
LINE
5
46
330
11
100
AcDbEntity
100
AcDbLine
8
COTAS_REFUERZO
10
7.066666666666666
20
20.5
30
0
11
7.016666666666667
21
20.55
31
0
0
LINE
5
47
330
11
100
AcDbEntity
100
AcDbLine
8
COTAS_REFUERZO
10
7.066666666666666
20
20.5
30
0
11
7.016666666666667
21
20.45
31
0
0
TEXT
5
48
330
11
100
AcDbEntity
100
AcDbText
8
COTAS_REFUERZO
10
6.596666666666667
20
20.1
30
0
40
0.1
1
0.74m
50
0
100
AcDbText
0
LINE
5
49
330
11
100
AcDbEntity
100
AcDbLine
8
COTAS_REFUERZO
10
6.866666666666666
20
28.200000000000003
30
0
11
6.866666666666666
21
28.6
31
0
0
LINE
5
4A
330
11
100
AcDbEntity
100
AcDbLine
8
COTAS_REFUERZO
10
7.066666666666666
20
28.200000000000003
30
0
11
7.066666666666666
21
28.6
31
0
0
LINE
5
4B
330
11
100
AcDbEntity
100
AcDbLine
8
COTAS_REFUERZO
10
6.866666666666666
20
28.500000000000004
30
0
11
7.066666666666666
21
28.500000000000004
31
0
0
LINE
5
4C
330
11
100
AcDbEntity
100
AcDbLine
8
COTAS_REFUERZO
10
6.866666666666666
20
28.500000000000004
30
0
11
6.916666666666666
21
28.550000000000004
31
0
0
LINE
5
4D
330
11
100
AcDbEntity
100
AcDbLine
8
COTAS_REFUERZO
10
6.866666666666666
20
28.500000000000004
30
0
11
6.916666666666666
21
28.450000000000003
31
0
0
LINE
5
4E
330
11
100
AcDbEntity
100
AcDbLine
8
COTAS_REFUERZO
10
7.066666666666666
20
28.500000000000004
30
0
11
7.016666666666667
21
28.550000000000004
31
0
0
LINE
5
4F
330
11
100
AcDbEntity
100
AcDbLine
8
COTAS_REFUERZO
10
7.066666666666666
20
28.500000000000004
30
0
11
7.016666666666667
21
28.450000000000003
31
0
0
TEXT
5
50
330
11
100
AcDbEntity
100
AcDbText
8
COTAS_REFUERZO
10
6.866666666666667
20
28.700000000000003
30
0
40
0.1
1
0.20m
50
0
100
AcDbText
0
LINE
5
51
330
11
100
AcDbEntity
100
AcDbLine
8
COTAS_REFUERZO
10
9.78
20
20.8
30
0
11
10.68
21
20.8
31
0
0
LINE
5
52
330
11
100
AcDbEntity
100
AcDbLine
8
COTAS_REFUERZO
10
9.78
20
28.200000000000003
30
0
11
10.68
21
28.200000000000003
31
0
0
LINE
5
53
330
11
100
AcDbEntity
100
AcDbLine
8
COTAS_REFUERZO
10
10.58
20
20.8
30
0
11
10.58
21
28.200000000000003
31
0
0
LINE
5
54
330
11
100
AcDbEntity
100
AcDbLine
8
COTAS_REFUERZO
10
10.58
20
20.8
30
0
11
10.63
21
20.85
31
0
0
LINE
5
55
330
11
100
AcDbEntity
100
AcDbLine
8
COTAS_REFUERZO
10
10.58
20
20.8
30
0
11
10.53
21
20.85
31
0
0
LINE
5
56
330
11
100
AcDbEntity
100
AcDbLine
8
COTAS_REFUERZO
10
10.58
20
28.200000000000003
30
0
11
10.63
21
28.150000000000002
31
0
0
LINE
5
57
330
11
100
AcDbEntity
100
AcDbLine
8
COTAS_REFUERZO
10
10.58
20
28.200000000000003
30
0
11
10.53
21
28.150000000000002
31
0
0
TEXT
5
58
330
11
100
AcDbEntity
100
AcDbText
8
COTAS_REFUERZO
10
10.78
20
24.4
30
0
40
0.1
1
7.40m
50
90
100
AcDbText
0
LINE
5
59
330
11
100
AcDbEntity
100
AcDbLine
8
COTAS_REFUERZO
10
9.78
20
21.54
30
0
11
10.18
21
21.54
31
0
0
LINE
5
5A
330
11
100
AcDbEntity
100
AcDbLine
8
COTAS_REFUERZO
10
9.78
20
28.200000000000003
30
0
11
10.18
21
28.200000000000003
31
0
0
LINE
5
5B
330
11
100
AcDbEntity
100
AcDbLine
8
COTAS_REFUERZO
10
10.08
20
21.54
30
0
11
10.08
21
28.200000000000003
31
0
0
LINE
5
5C
330
11
100
AcDbEntity
100
AcDbLine
8
COTAS_REFUERZO
10
10.08
20
21.54
30
0
11
10.13
21
21.59
31
0
0
LINE
5
5D
330
11
100
AcDbEntity
100
AcDbLine
8
COTAS_REFUERZO
10
10.08
20
21.54
30
0
11
10.03
21
21.59
31
0
0
LINE
5
5E
330
11
100
AcDbEntity
100
AcDbLine
8
COTAS_REFUERZO
10
10.08
20
28.200000000000003
30
0
11
10.13
21
28.150000000000002
31
0
0
LINE
5
5F
330
11
100
AcDbEntity
100
AcDbLine
8
COTAS_REFUERZO
10
10.08
20
28.200000000000003
30
0
11
10.03
21
28.150000000000002
31
0
0
TEXT
5
60
330
11
100
AcDbEntity
100
AcDbText
8
COTAS_REFUERZO
10
10.28
20
24.77
30
0
40
0.1
1
6.66m
50
90
100
AcDbText
0
LINE
5
61
330
11
100
AcDbEntity
100
AcDbLine
8
COTAS_REFUERZO
10
9.78
20
20.8
30
0
11
10.18
21
20.8
31
0
0
LINE
5
62
330
11
100
AcDbEntity
100
AcDbLine
8
COTAS_REFUERZO
10
9.78
20
21.54
30
0
11
10.18
21
21.54
31
0
0
LINE
5
63
330
11
100
AcDbEntity
100
AcDbLine
8
COTAS_REFUERZO
10
10.08
20
20.8
30
0
11
10.08
21
21.54
31
0
0
LINE
5
64
330
11
100
AcDbEntity
100
AcDbLine
8
COTAS_REFUERZO
10
10.08
20
20.8
30
0
11
10.13
21
20.85
31
0
0
LINE
5
65
330
11
100
AcDbEntity
100
AcDbLine
8
COTAS_REFUERZO
10
10.08
20
20.8
30
0
11
10.03
21
20.85
31
0
0
LINE
5
66
330
11
100
AcDbEntity
100
AcDbLine
8
COTAS_REFUERZO
10
10.08
20
21.54
30
0
11
10.13
21
21.49
31
0
0
LINE
5
67
330
11
100
AcDbEntity
100
AcDbLine
8
COTAS_REFUERZO
10
10.08
20
21.54
30
0
11
10.03
21
21.49
31
0
0
TEXT
5
68
330
11
100
AcDbEntity
100
AcDbText
8
COTAS_REFUERZO
10
10.28
20
21.07
30
0
40
0.1
1
0.74m
50
90
100
AcDbText
0
CIRCLE
5
6A
330
11
100
AcDbEntity
100
AcDbCircle
8
TITULO_REFUERZO
10
3.5999999999999996
20
18.299999999999997
30
0
40
0.4
0
TEXT
5
6B
330
11
100
AcDbEntity
100
AcDbText
8
TITULO_REFUERZO
10
3.5999999999999996
20
18.299999999999997
30
0
40
0.15
1
1
50
0
100
AcDbText
0
TEXT
5
6C
330
11
100
AcDbEntity
100
AcDbText
8
TITULO_REFUERZO
10
4.199999999999999
20
18.299999999999997
30
0
40
0.12
1
REFUERZO DE MURO TIPO I_CORTE 1-1
50
0
100
AcDbText
0
TEXT
5
6D
330
11
100
AcDbEntity
100
AcDbText
8
TITULO_REFUERZO
10
4.199999999999999
20
18.099999999999998
30
0
40
0.1
1
ESC. 1:50
50
0
100
AcDbText
0
LINE
5
6F
330
11
100
AcDbEntity
100
AcDbLine
8
CONTORNO_INTERNO_INTERNO_TRIANGULO
10
6.376666666666666
20
20.85
30
0
11
7.016666666666667
21
20.85
31
0
0
LINE
5
70
330
11
100
AcDbEntity
100
AcDbLine
8
CONTORNO_INTERNO_INTERNO_TRIANGULO
10
7.016666666666667
20
20.85
30
0
11
7.016666666666667
21
28.150000000000002
31
0
0
LINE
5
71
330
11
100
AcDbEntity
100
AcDbLine
8
CONTORNO_INTERNO_INTERNO_TRIANGULO
10
7.016666666666667
20
28.150000000000002
30
0
11
6.916666666666666
21
28.150000000000002
31
0
0
LINE
5
72
330
11
100
AcDbEntity
100
AcDbLine
8
CONTORNO_INTERNO_INTERNO_TRIANGULO
10
6.916666666666666
20
28.150000000000002
30
0
11
6.376666666666666
21
21.49
31
0
0
LINE
5
73
330
11
100
AcDbEntity
100
AcDbLine
8
CONTORNO_INTERNO_INTERNO_TRIANGULO
10
6.376666666666666
20
21.49
30
0
11
6.376666666666666
21
20.85
31
0
0
LINE
5
75
330
11
100
AcDbEntity
100
AcDbLine
8
CONTORNO_INTERNO_INTERNO_RECTANGULO
10
4.6499999999999995
20
20.85
30
0
11
9.73
21
20.85
31
0
0
LINE
5
76
330
11
100
AcDbEntity
100
AcDbLine
8
CONTORNO_INTERNO_INTERNO_RECTANGULO
10
9.73
20
20.85
30
0
11
9.73
21
21.49
31
0
0
LINE
5
77
330
11
100
AcDbEntity
100
AcDbLine
8
CONTORNO_INTERNO_INTERNO_RECTANGULO
10
9.73
20
21.49
30
0
11
4.6499999999999995
21
21.49
31
0
0
LINE
5
78
330
11
100
AcDbEntity
100
AcDbLine
8
CONTORNO_INTERNO_INTERNO_RECTANGULO
10
4.6499999999999995
20
21.49
30
0
11
4.6499999999999995
21
20.85
31
0
0
CIRCLE
5
7A
330
11
100
AcDbEntity
100
AcDbCircle
8
REFUERZO_PUNTOS
10
9.629999999999999
20
21.439999999999998
30
0
40
0.01
0
CIRCLE
5
7B
330
11
100
AcDbEntity
100
AcDbCircle
8
REFUERZO_PUNTOS
10
9.455714285714286
20
21.439999999999998
30
0
40
0.01
0
CIRCLE
5
7C
330
11
100
AcDbEntity
100
AcDbCircle
8
REFUERZO_PUNTOS
10
9.28142857142857
20
21.439999999999998
30
0
40
0.01
0
CIRCLE
5
7D
330
11
100
AcDbEntity
100
AcDbCircle
8
REFUERZO_PUNTOS
10
9.107142857142858
20
21.439999999999998
30
0
40
0.01
0
CIRCLE
5
7E
330
11
100
AcDbEntity
100
AcDbCircle
8
REFUERZO_PUNTOS
10
8.932857142857143
20
21.439999999999998
30
0
40
0.01
0
CIRCLE
5
7F
330
11
100
AcDbEntity
100
AcDbCircle
8
REFUERZO_PUNTOS
10
8.758571428571429
20
21.439999999999998
30
0
40
0.01
0
CIRCLE
5
80
330
11
100
AcDbEntity
100
AcDbCircle
8
REFUERZO_PUNTOS
10
8.584285714285715
20
21.439999999999998
30
0
40
0.01
0
CIRCLE
5
81
330
11
100
AcDbEntity
100
AcDbCircle
8
REFUERZO_PUNTOS
10
8.41
20
21.439999999999998
30
0
40
0.01
0
CIRCLE
5
82
330
11
100
AcDbEntity
100
AcDbCircle
8
REFUERZO_PUNTOS
10
8.235714285714286
20
21.439999999999998
30
0
40
0.01
0
CIRCLE
5
83
330
11
100
AcDbEntity
100
AcDbCircle
8
REFUERZO_PUNTOS
10
8.061428571428571
20
21.439999999999998
30
0
40
0.01
0
CIRCLE
5
84
330
11
100
AcDbEntity
100
AcDbCircle
8
REFUERZO_PUNTOS
10
7.887142857142857
20
21.439999999999998
30
0
40
0.01
0
CIRCLE
5
85
330
11
100
AcDbEntity
100
AcDbCircle
8
REFUERZO_PUNTOS
10
7.712857142857143
20
21.439999999999998
30
0
40
0.01
0
CIRCLE
5
86
330
11
100
AcDbEntity
100
AcDbCircle
8
REFUERZO_PUNTOS
10
7.538571428571428
20
21.439999999999998
30
0
40
0.01
0
CIRCLE
5
87
330
11
100
AcDbEntity
100
AcDbCircle
8
REFUERZO_PUNTOS
10
7.364285714285714
20
21.439999999999998
30
0
40
0.01
0
CIRCLE
5
88
330
11
100
AcDbEntity
100
AcDbCircle
8
REFUERZO_PUNTOS
10
7.1899999999999995
20
21.439999999999998
30
0
40
0.01
0
CIRCLE
5
89
330
11
100
AcDbEntity
100
AcDbCircle
8
REFUERZO_PUNTOS
10
7.015714285714285
20
21.439999999999998
30
0
40
0.01
0
CIRCLE
5
8A
330
11
100
AcDbEntity
100
AcDbCircle
8
REFUERZO_PUNTOS
10
6.841428571428572
20
21.439999999999998
30
0
40
0.01
0
CIRCLE
5
8B
330
11
100
AcDbEntity
100
AcDbCircle
8
REFUERZO_PUNTOS
10
6.667142857142857
20
21.439999999999998
30
0
40
0.01
0
CIRCLE
5
8C
330
11
100
AcDbEntity
100
AcDbCircle
8
REFUERZO_PUNTOS
10
6.492857142857142
20
21.439999999999998
30
0
40
0.01
0
CIRCLE
5
8D
330
11
100
AcDbEntity
100
AcDbCircle
8
REFUERZO_PUNTOS
10
6.3185714285714285
20
21.439999999999998
30
0
40
0.01
0
CIRCLE
5
8E
330
11
100
AcDbEntity
100
AcDbCircle
8
REFUERZO_PUNTOS
10
6.144285714285714
20
21.439999999999998
30
0
40
0.01
0
CIRCLE
5
8F
330
11
100
AcDbEntity
100
AcDbCircle
8
REFUERZO_PUNTOS
10
5.97
20
21.439999999999998
30
0
40
0.01
0
CIRCLE
5
90
330
11
100
AcDbEntity
100
AcDbCircle
8
REFUERZO_PUNTOS
10
5.795714285714286
20
21.439999999999998
30
0
40
0.01
0
CIRCLE
5
91
330
11
100
AcDbEntity
100
AcDbCircle
8
REFUERZO_PUNTOS
10
5.621428571428572
20
21.439999999999998
30
0
40
0.01
0
CIRCLE
5
92
330
11
100
AcDbEntity
100
AcDbCircle
8
REFUERZO_PUNTOS
10
5.4471428571428575
20
21.439999999999998
30
0
40
0.01
0
CIRCLE
5
93
330
11
100
AcDbEntity
100
AcDbCircle
8
REFUERZO_PUNTOS
10
5.272857142857142
20
21.439999999999998
30
0
40
0.01
0
CIRCLE
5
94
330
11
100
AcDbEntity
100
AcDbCircle
8
REFUERZO_PUNTOS
10
5.098571428571429
20
21.439999999999998
30
0
40
0.01
0
CIRCLE
5
95
330
11
100
AcDbEntity
100
AcDbCircle
8
REFUERZO_PUNTOS
10
4.924285714285714
20
21.439999999999998
30
0
40
0.01
0
CIRCLE
5
96
330
11
100
AcDbEntity
100
AcDbCircle
8
REFUERZO_PUNTOS
10
4.75
20
21.439999999999998
30
0
40
0.01
0
CIRCLE
5
97
330
11
100
AcDbEntity
100
AcDbCircle
8
REFUERZO_PUNTOS
10
4.75
20
20.89
30
0
40
0.01
0
CIRCLE
5
98
330
11
100
AcDbEntity
100
AcDbCircle
8
REFUERZO_PUNTOS
10
4.953333333333333
20
20.89
30
0
40
0.01
0
CIRCLE
5
99
330
11
100
AcDbEntity
100
AcDbCircle
8
REFUERZO_PUNTOS
10
5.156666666666666
20
20.89
30
0
40
0.01
0
CIRCLE
5
9A
330
11
100
AcDbEntity
100
AcDbCircle
8
REFUERZO_PUNTOS
10
5.359999999999999
20
20.89
30
0
40
0.01
0
CIRCLE
5
9B
330
11
100
AcDbEntity
100
AcDbCircle
8
REFUERZO_PUNTOS
10
5.563333333333333
20
20.89
30
0
40
0.01
0
CIRCLE
5
9C
330
11
100
AcDbEntity
100
AcDbCircle
8
REFUERZO_PUNTOS
10
5.766666666666666
20
20.89
30
0
40
0.01
0
CIRCLE
5
9D
330
11
100
AcDbEntity
100
AcDbCircle
8
REFUERZO_PUNTOS
10
5.97
20
20.89
30
0
40
0.01
0
CIRCLE
5
9E
330
11
100
AcDbEntity
100
AcDbCircle
8
REFUERZO_PUNTOS
10
6.173333333333333
20
20.89
30
0
40
0.01
0
CIRCLE
5
9F
330
11
100
AcDbEntity
100
AcDbCircle
8
REFUERZO_PUNTOS
10
6.376666666666666
20
20.89
30
0
40
0.01
0
CIRCLE
5
A0
330
11
100
AcDbEntity
100
AcDbCircle
8
REFUERZO_PUNTOS
10
6.58
20
20.89
30
0
40
0.01
0
CIRCLE
5
A1
330
11
100
AcDbEntity
100
AcDbCircle
8
REFUERZO_PUNTOS
10
6.783333333333333
20
20.89
30
0
40
0.01
0
CIRCLE
5
A2
330
11
100
AcDbEntity
100
AcDbCircle
8
REFUERZO_PUNTOS
10
6.986666666666666
20
20.89
30
0
40
0.01
0
CIRCLE
5
A3
330
11
100
AcDbEntity
100
AcDbCircle
8
REFUERZO_PUNTOS
10
7.1899999999999995
20
20.89
30
0
40
0.01
0
CIRCLE
5
A4
330
11
100
AcDbEntity
100
AcDbCircle
8
REFUERZO_PUNTOS
10
7.393333333333333
20
20.89
30
0
40
0.01
0
CIRCLE
5
A5
330
11
100
AcDbEntity
100
AcDbCircle
8
REFUERZO_PUNTOS
10
7.596666666666666
20
20.89
30
0
40
0.01
0
CIRCLE
5
A6
330
11
100
AcDbEntity
100
AcDbCircle
8
REFUERZO_PUNTOS
10
7.799999999999999
20
20.89
30
0
40
0.01
0
CIRCLE
5
A7
330
11
100
AcDbEntity
100
AcDbCircle
8
REFUERZO_PUNTOS
10
8.003333333333332
20
20.89
30
0
40
0.01
0
CIRCLE
5
A8
330
11
100
AcDbEntity
100
AcDbCircle
8
REFUERZO_PUNTOS
10
8.206666666666667
20
20.89
30
0
40
0.01
0
CIRCLE
5
A9
330
11
100
AcDbEntity
100
AcDbCircle
8
REFUERZO_PUNTOS
10
8.41
20
20.89
30
0
40
0.01
0
CIRCLE
5
AA
330
11
100
AcDbEntity
100
AcDbCircle
8
REFUERZO_PUNTOS
10
8.613333333333333
20
20.89
30
0
40
0.01
0
CIRCLE
5
AB
330
11
100
AcDbEntity
100
AcDbCircle
8
REFUERZO_PUNTOS
10
8.816666666666666
20
20.89
30
0
40
0.01
0
CIRCLE
5
AC
330
11
100
AcDbEntity
100
AcDbCircle
8
REFUERZO_PUNTOS
10
9.02
20
20.89
30
0
40
0.01
0
CIRCLE
5
AD
330
11
100
AcDbEntity
100
AcDbCircle
8
REFUERZO_PUNTOS
10
9.223333333333333
20
20.89
30
0
40
0.01
0
CIRCLE
5
AE
330
11
100
AcDbEntity
100
AcDbCircle
8
REFUERZO_PUNTOS
10
9.426666666666666
20
20.89
30
0
40
0.01
0
CIRCLE
5
AF
330
11
100
AcDbEntity
100
AcDbCircle
8
REFUERZO_PUNTOS
10
9.629999999999999
20
20.89
30
0
40
0.01
0
CIRCLE
5
B0
330
11
100
AcDbEntity
100
AcDbCircle
8
REFUERZO_PUNTOS
10
6.4340437709183
20
20.94972752043875
30
0
40
0.01
0
CIRCLE
5
B1
330
11
100
AcDbEntity
100
AcDbCircle
8
REFUERZO_PUNTOS
10
6.449050793532492
20
21.152600233556534
30
0
40
0.01
0
CIRCLE
5
B2
330
11
100
AcDbEntity
100
AcDbCircle
8
REFUERZO_PUNTOS
10
6.464057816146684
20
21.355472946674322
30
0
40
0.01
0
CIRCLE
5
B3
330
11
100
AcDbEntity
100
AcDbCircle
8
REFUERZO_PUNTOS
10
6.479064838760876
20
21.558345659792106
30
0
40
0.01
0
CIRCLE
5
B4
330
11
100
AcDbEntity
100
AcDbCircle
8
REFUERZO_PUNTOS
10
6.494071861375069
20
21.76121837290989
30
0
40
0.01
0
CIRCLE
5
B5
330
11
100
AcDbEntity
100
AcDbCircle
8
REFUERZO_PUNTOS
10
6.509078883989261
20
21.96409108602768
30
0
40
0.01
0
CIRCLE
5
B6
330
11
100
AcDbEntity
100
AcDbCircle
8
REFUERZO_PUNTOS
10
6.524085906603454
20
22.166963799145464
30
0
40
0.01
0
CIRCLE
5
B7
330
11
100
AcDbEntity
100
AcDbCircle
8
REFUERZO_PUNTOS
10
6.539092929217646
20
22.36983651226325
30
0
40
0.01
0
CIRCLE
5
B8
330
11
100
AcDbEntity
100
AcDbCircle
8
REFUERZO_PUNTOS
10
6.554099951831838
20
22.572709225381036
30
0
40
0.01
0
CIRCLE
5
B9
330
11
100
AcDbEntity
100
AcDbCircle
8
REFUERZO_PUNTOS
10
6.569106974446031
20
22.77558193849882
30
0
40
0.01
0
CIRCLE
5
BA
330
11
100
AcDbEntity
100
AcDbCircle
8
REFUERZO_PUNTOS
10
6.584113997060223
20
22.97845465161661
30
0
40
0.01
0
CIRCLE
5
BB
330
11
100
AcDbEntity
100
AcDbCircle
8
REFUERZO_PUNTOS
10
6.599121019674416
20
23.181327364734393
30
0
40
0.01
0
CIRCLE
5
BC
330
11
100
AcDbEntity
100
AcDbCircle
8
REFUERZO_PUNTOS
10
6.614128042288608
20
23.384200077852178
30
0
40
0.01
0
CIRCLE
5
BD
330
11
100
AcDbEntity
100
AcDbCircle
8
REFUERZO_PUNTOS
10
6.6291350649028
20
23.587072790969966
30
0
40
0.01
0
CIRCLE
5
BE
330
11
100
AcDbEntity
100
AcDbCircle
8
REFUERZO_PUNTOS
10
6.644142087516992
20
23.78994550408775
30
0
40
0.01
0
CIRCLE
5
BF
330
11
100
AcDbEntity
100
AcDbCircle
8
REFUERZO_PUNTOS
10
6.659149110131185
20
23.99281821720554
30
0
40
0.01
0
CIRCLE
5
C0
330
11
100
AcDbEntity
100
AcDbCircle
8
REFUERZO_PUNTOS
10
6.674156132745377
20
24.195690930323323
30
0
40
0.01
0
CIRCLE
5
C1
330
11
100
AcDbEntity
100
AcDbCircle
8
REFUERZO_PUNTOS
10
6.68916315535957
20
24.398563643441108
30
0
40
0.01
0
CIRCLE
5
C2
330
11
100
AcDbEntity
100
AcDbCircle
8
REFUERZO_PUNTOS
10
6.704170177973762
20
24.601436356558896
30
0
40
0.01
0
CIRCLE
5
C3
330
11
100
AcDbEntity
100
AcDbCircle
8
REFUERZO_PUNTOS
10
6.719177200587954
20
24.80430906967668
30
0
40
0.01
0
CIRCLE
5
C4
330
11
100
AcDbEntity
100
AcDbCircle
8
REFUERZO_PUNTOS
10
6.7341842232021465
20
25.007181782794465
30
0
40
0.01
0
CIRCLE
5
C5
330
11
100
AcDbEntity
100
AcDbCircle
8
REFUERZO_PUNTOS
10
6.7491912458163394
20
25.210054495912253
30
0
40
0.01
0
CIRCLE
5
C6
330
11
100
AcDbEntity
100
AcDbCircle
8
REFUERZO_PUNTOS
10
6.764198268430532
20
25.412927209030038
30
0
40
0.01
0
CIRCLE
5
C7
330
11
100
AcDbEntity
100
AcDbCircle
8
REFUERZO_PUNTOS
10
6.7792052910447245
20
25.615799922147822
30
0
40
0.01
0
CIRCLE
5
C8
330
11
100
AcDbEntity
100
AcDbCircle
8
REFUERZO_PUNTOS
10
6.7942123136589165
20
25.81867263526561
30
0
40
0.01
0
CIRCLE
5
C9
330
11
100
AcDbEntity
100
AcDbCircle
8
REFUERZO_PUNTOS
10
6.809219336273109
20
26.021545348383395
30
0
40
0.01
0
CIRCLE
5
CA
330
11
100
AcDbEntity
100
AcDbCircle
8
REFUERZO_PUNTOS
10
6.824226358887302
20
26.224418061501183
30
0
40
0.01
0
CIRCLE
5
CB
330
11
100
AcDbEntity
100
AcDbCircle
8
REFUERZO_PUNTOS
10
6.839233381501494
20
26.427290774618967
30
0
40
0.01
0
CIRCLE
5
CC
330
11
100
AcDbEntity
100
AcDbCircle
8
REFUERZO_PUNTOS
10
6.854240404115687
20
26.630163487736752
30
0
40
0.01
0
CIRCLE
5
CD
330
11
100
AcDbEntity
100
AcDbCircle
8
REFUERZO_PUNTOS
10
6.869247426729879
20
26.83303620085454
30
0
40
0.01
0
CIRCLE
5
CE
330
11
100
AcDbEntity
100
AcDbCircle
8
REFUERZO_PUNTOS
10
6.884254449344071
20
27.035908913972325
30
0
40
0.01
0
CIRCLE
5
CF
330
11
100
AcDbEntity
100
AcDbCircle
8
REFUERZO_PUNTOS
10
6.899261471958263
20
27.238781627090113
30
0
40
0.01
0
CIRCLE
5
D0
330
11
100
AcDbEntity
100
AcDbCircle
8
REFUERZO_PUNTOS
10
6.914268494572456
20
27.441654340207897
30
0
40
0.01
0
CIRCLE
5
D1
330
11
100
AcDbEntity
100
AcDbCircle
8
REFUERZO_PUNTOS
10
6.929275517186648
20
27.64452705332568
30
0
40
0.01
0
CIRCLE
5
D2
330
11
100
AcDbEntity
100
AcDbCircle
8
REFUERZO_PUNTOS
10
6.944282539800841
20
27.847399766443466
30
0
40
0.01
0
CIRCLE
5
D3
330
11
100
AcDbEntity
100
AcDbCircle
8
REFUERZO_PUNTOS
10
6.959289562415033
20
28.050272479561254
30
0
40
0.01
0
CIRCLE
5
D4
330
11
100
AcDbEntity
100
AcDbCircle
8
REFUERZO_PUNTOS
10
6.966666666666667
20
28.05
30
0
40
0.01
0
CIRCLE
5
D5
330
11
100
AcDbEntity
100
AcDbCircle
8
REFUERZO_PUNTOS
10
6.966666666666667
20
27.84714285714286
30
0
40
0.01
0
CIRCLE
5
D6
330
11
100
AcDbEntity
100
AcDbCircle
8
REFUERZO_PUNTOS
10
6.966666666666667
20
27.644285714285715
30
0
40
0.01
0
CIRCLE
5
D7
330
11
100
AcDbEntity
100
AcDbCircle
8
REFUERZO_PUNTOS
10
6.966666666666667
20
27.441428571428574
30
0
40
0.01
0
CIRCLE
5
D8
330
11
100
AcDbEntity
100
AcDbCircle
8
REFUERZO_PUNTOS
10
6.966666666666667
20
27.23857142857143
30
0
40
0.01
0
CIRCLE
5
D9
330
11
100
AcDbEntity
100
AcDbCircle
8
REFUERZO_PUNTOS
10
6.966666666666667
20
27.03571428571429
30
0
40
0.01
0
CIRCLE
5
DA
330
11
100
AcDbEntity
100
AcDbCircle
8
REFUERZO_PUNTOS
10
6.966666666666667
20
26.832857142857144
30
0
40
0.01
0
CIRCLE
5
DB
330
11
100
AcDbEntity
100
AcDbCircle
8
REFUERZO_PUNTOS
10
6.966666666666667
20
26.630000000000003
30
0
40
0.01
0
CIRCLE
5
DC
330
11
100
AcDbEntity
100
AcDbCircle
8
REFUERZO_PUNTOS
10
6.966666666666667
20
26.427142857142858
30
0
40
0.01
0
CIRCLE
5
DD
330
11
100
AcDbEntity
100
AcDbCircle
8
REFUERZO_PUNTOS
10
6.966666666666667
20
26.224285714285717
30
0
40
0.01
0
CIRCLE
5
DE
330
11
100
AcDbEntity
100
AcDbCircle
8
REFUERZO_PUNTOS
10
6.966666666666667
20
26.021428571428572
30
0
40
0.01
0
CIRCLE
5
DF
330
11
100
AcDbEntity
100
AcDbCircle
8
REFUERZO_PUNTOS
10
6.966666666666667
20
25.81857142857143
30
0
40
0.01
0
CIRCLE
5
E0
330
11
100
AcDbEntity
100
AcDbCircle
8
REFUERZO_PUNTOS
10
6.966666666666667
20
25.615714285714287
30
0
40
0.01
0
CIRCLE
5
E1
330
11
100
AcDbEntity
100
AcDbCircle
8
REFUERZO_PUNTOS
10
6.966666666666667
20
25.412857142857145
30
0
40
0.01
0
CIRCLE
5
E2
330
11
100
AcDbEntity
100
AcDbCircle
8
REFUERZO_PUNTOS
10
6.966666666666667
20
25.21
30
0
40
0.01
0
CIRCLE
5
E3
330
11
100
AcDbEntity
100
AcDbCircle
8
REFUERZO_PUNTOS
10
6.966666666666667
20
25.00714285714286
30
0
40
0.01
0
CIRCLE
5
E4
330
11
100
AcDbEntity
100
AcDbCircle
8
REFUERZO_PUNTOS
10
6.966666666666667
20
24.804285714285715
30
0
40
0.01
0
CIRCLE
5
E5
330
11
100
AcDbEntity
100
AcDbCircle
8
REFUERZO_PUNTOS
10
6.966666666666667
20
24.601428571428574
30
0
40
0.01
0
CIRCLE
5
E6
330
11
100
AcDbEntity
100
AcDbCircle
8
REFUERZO_PUNTOS
10
6.966666666666667
20
24.39857142857143
30
0
40
0.01
0
CIRCLE
5
E7
330
11
100
AcDbEntity
100
AcDbCircle
8
REFUERZO_PUNTOS
10
6.966666666666667
20
24.19571428571429
30
0
40
0.01
0
CIRCLE
5
E8
330
11
100
AcDbEntity
100
AcDbCircle
8
REFUERZO_PUNTOS
10
6.966666666666667
20
23.992857142857144
30
0
40
0.01
0
CIRCLE
5
E9
330
11
100
AcDbEntity
100
AcDbCircle
8
REFUERZO_PUNTOS
10
6.966666666666667
20
23.790000000000003
30
0
40
0.01
0
CIRCLE
5
EA
330
11
100
AcDbEntity
100
AcDbCircle
8
REFUERZO_PUNTOS
10
6.966666666666667
20
23.587142857142858
30
0
40
0.01
0
CIRCLE
5
EB
330
11
100
AcDbEntity
100
AcDbCircle
8
REFUERZO_PUNTOS
10
6.966666666666667
20
23.384285714285717
30
0
40
0.01
0
CIRCLE
5
EC
330
11
100
AcDbEntity
100
AcDbCircle
8
REFUERZO_PUNTOS
10
6.966666666666667
20
23.181428571428572
30
0
40
0.01
0
CIRCLE
5
ED
330
11
100
AcDbEntity
100
AcDbCircle
8
REFUERZO_PUNTOS
10
6.966666666666667
20
22.97857142857143
30
0
40
0.01
0
CIRCLE
5
EE
330
11
100
AcDbEntity
100
AcDbCircle
8
REFUERZO_PUNTOS
10
6.966666666666667
20
22.775714285714287
30
0
40
0.01
0
CIRCLE
5
EF
330
11
100
AcDbEntity
100
AcDbCircle
8
REFUERZO_PUNTOS
10
6.966666666666667
20
22.572857142857146
30
0
40
0.01
0
CIRCLE
5
F0
330
11
100
AcDbEntity
100
AcDbCircle
8
REFUERZO_PUNTOS
10
6.966666666666667
20
22.37
30
0
40
0.01
0
CIRCLE
5
F1
330
11
100
AcDbEntity
100
AcDbCircle
8
REFUERZO_PUNTOS
10
6.966666666666667
20
22.16714285714286
30
0
40
0.01
0
CIRCLE
5
F2
330
11
100
AcDbEntity
100
AcDbCircle
8
REFUERZO_PUNTOS
10
6.966666666666667
20
21.964285714285715
30
0
40
0.01
0
CIRCLE
5
F3
330
11
100
AcDbEntity
100
AcDbCircle
8
REFUERZO_PUNTOS
10
6.966666666666667
20
21.761428571428574
30
0
40
0.01
0
CIRCLE
5
F4
330
11
100
AcDbEntity
100
AcDbCircle
8
REFUERZO_PUNTOS
10
6.966666666666667
20
21.558571428571433
30
0
40
0.01
0
CIRCLE
5
F5
330
11
100
AcDbEntity
100
AcDbCircle
8
REFUERZO_PUNTOS
10
6.966666666666667
20
21.35571428571429
30
0
40
0.01
0
CIRCLE
5
F6
330
11
100
AcDbEntity
100
AcDbCircle
8
REFUERZO_PUNTOS
10
6.966666666666667
20
21.152857142857144
30
0
40
0.01
0
CIRCLE
5
F7
330
11
100
AcDbEntity
100
AcDbCircle
8
REFUERZO_PUNTOS
10
6.966666666666667
20
20.950000000000003
30
0
40
0.01
0
LINE
5
F9
330
11
100
AcDbEntity
100
AcDbLine
8
ESTRUCTURA_LEADERS
10
7.1899999999999995
20
21.49
30
0
11
7.1899999999999995
21
21.59
31
0
0
LINE
5
FA
330
11
100
AcDbEntity
100
AcDbLine
8
ESTRUCTURA_LEADERS
10
7.1899999999999995
20
21.59
30
0
11
7.6899999999999995
21
21.99
31
0
0
LINE
5
FB
330
11
100
AcDbEntity
100
AcDbLine
8
ESTRUCTURA_LEADERS
10
7.6899999999999995
20
21.99
30
0
11
7.64057001251111
21
21.982471631196052
31
0
0
LINE
5
FC
330
11
100
AcDbEntity
100
AcDbLine
8
ESTRUCTURA_LEADERS
10
7.6899999999999995
20
21.99
30
0
11
7.671804764888831
21
21.9434281907239
31
0
0
TEXT
5
FD
330
11
100
AcDbEntity
100
AcDbText
8
ESTRUCTURA_LEADERS
10
7.6899999999999995
20
22.14
30
0
40
0.12
1
1@3/8"5.08cm
50
0
100
AcDbText
0
LINE
5
FE
330
11
100
AcDbEntity
100
AcDbLine
8
ESTRUCTURA_LEADERS
10
7.1899999999999995
20
20.85
30
0
11
7.1899999999999995
21
20.75
31
0
0
LINE
5
FF
330
11
100
AcDbEntity
100
AcDbLine
8
ESTRUCTURA_LEADERS
10
7.1899999999999995
20
20.75
30
0
11
4.1899999999999995
21
21.950000000000003
31
0
0
LINE
5
100
330
11
100
AcDbEntity
100
AcDbLine
8
ESTRUCTURA_LEADERS
10
4.1899999999999995
20
21.950000000000003
30
0
11
4.220919453147564
21
21.910706394705304
31
0
0
LINE
5
101
330
11
100
AcDbEntity
100
AcDbLine
8
ESTRUCTURA_LEADERS
10
4.1899999999999995
20
21.950000000000003
30
0
11
4.239488986965269
21
21.957130229249568
31
0
0
TEXT
5
102
330
11
100
AcDbEntity
100
AcDbText
8
ESTRUCTURA_LEADERS
10
4.1899999999999995
20
21.900000000000002
30
0
40
0.12
1
1@3/8"5.08cm
50
0
100
AcDbText
0
LINE
5
103
330
11
100
AcDbEntity
100
AcDbLine
8
ESTRUCTURA_LEADERS
10
6.6466666666666665
20
24.5
30
0
11
6.546666666666667
21
24.5
31
0
0
LINE
5
104
330
11
100
AcDbEntity
100
AcDbLine
8
ESTRUCTURA_LEADERS
10
6.546666666666667
20
24.5
30
0
11
5.546666666666666
21
24.5
31
0
0
LINE
5
105
330
11
100
AcDbEntity
100
AcDbLine
8
ESTRUCTURA_LEADERS
10
5.546666666666666
20
24.5
30
0
11
5.589967936855888
21
24.475
31
0
0
LINE
5
106
330
11
100
AcDbEntity
100
AcDbLine
8
ESTRUCTURA_LEADERS
10
5.546666666666666
20
24.5
30
0
11
5.589967936855888
21
24.525
31
0
0
TEXT
5
107
330
11
100
AcDbEntity
100
AcDbText
8
ESTRUCTURA_LEADERS
10
4.946666666666666
20
24.55
30
0
40
0.12
1
1@3/8"7.30cm
50
0
100
AcDbText
0
LINE
5
108
330
11
100
AcDbEntity
100
AcDbLine
8
ESTRUCTURA_LEADERS
10
7.016666666666667
20
24.5
30
0
11
7.116666666666666
21
24.5
31
0
0
LINE
5
109
330
11
100
AcDbEntity
100
AcDbLine
8
ESTRUCTURA_LEADERS
10
7.116666666666666
20
24.5
30
0
11
8.116666666666667
21
24.5
31
0
0
LINE
5
10A
330
11
100
AcDbEntity
100
AcDbLine
8
ESTRUCTURA_LEADERS
10
8.116666666666667
20
24.5
30
0
11
8.073365396477445
21
24.525
31
0
0
LINE
5
10B
330
11
100
AcDbEntity
100
AcDbLine
8
ESTRUCTURA_LEADERS
10
8.116666666666667
20
24.5
30
0
11
8.073365396477445
21
24.475
31
0
0
TEXT
5
10C
330
11
100
AcDbEntity
100
AcDbText
8
ESTRUCTURA_LEADERS
10
8.316666666666666
20
24.55
30
0
40
0.12
1
1@3/8"7.30cm
50
0
100
AcDbText
0
LINE
5
10D
330
11
100
AcDbEntity
100
AcDbLine
8
ESTRUCTURA_LEADERS
10
8.69
20
20.55
30
0
11
8.74
21
20.6
31
0
0
LINE
5
10E
330
11
100
AcDbEntity
100
AcDbLine
8
ESTRUCTURA_LEADERS
10
8.74
20
20.6
30
0
11
8.79
21
20.55
31
0
0
LINE
5
10F
330
11
100
AcDbEntity
100
AcDbLine
8
ESTRUCTURA_LEADERS
10
8.79
20
20.55
30
0
11
8.84
21
20.6
31
0
0
LINE
5
110
330
11
100
AcDbEntity
100
AcDbLine
8
ESTRUCTURA_LEADERS
10
8.84
20
20.6
30
0
11
8.889999999999999
21
20.55
31
0
0
TEXT
5
111
330
11
100
AcDbEntity
100
AcDbText
8
ESTRUCTURA_LEADERS
10
8.99
20
20.55
30
0
40
0.15
1
Soldado
50
0
100
AcDbText
0
LINE
5
113
330
11
100
AcDbEntity
100
AcDbLine
8
ACERO_LEADERS
10
9.629999999999999
20
21.439999999999998
30
0
11
8.129999999999999
21
21.939999999999998
31
0
0
LINE
5
114
330
11
100
AcDbEntity
100
AcDbLine
8
ACERO_LEADERS
10
9.629999999999999
20
21.439999999999998
30
0
11
9.589356996175683
21
21.46912295040233
31
0
0
LINE
5
115
330
11
100
AcDbEntity
100
AcDbLine
8
ACERO_LEADERS
10
9.629999999999999
20
21.439999999999998
30
0
11
9.580011826699147
21
21.441087441972723
31
0
0
LINE
5
116
330
11
100
AcDbEntity
100
AcDbLine
8
ACERO_LEADERS
10
8.129999999999999
20
21.939999999999998
30
0
11
8.43
21
21.939999999999998
31
0
0
TEXT
5
117
330
11
100
AcDbEntity
100
AcDbText
8
ACERO_LEADERS
10
8.48
20
21.959999999999997
30
0
40
0.08
1
1∅3/8"@17cm
50
0
100
AcDbText
0
LINE
5
118
330
11
100
AcDbEntity
100
AcDbLine
8
ACERO_LEADERS
10
4.75
20
20.89
30
0
11
2.75
21
21.39
31
0
0
LINE
5
119
330
11
100
AcDbEntity
100
AcDbLine
8
ACERO_LEADERS
10
4.75
20
20.89
30
0
11
4.707243082399655
21
20.9159199922322
31
0
0
LINE
5
11A
330
11
100
AcDbEntity
100
AcDbLine
8
ACERO_LEADERS
10
4.75
20
20.89
30
0
11
4.700075664596307
21
20.88725032101881
31
0
0
LINE
5
11B
330
11
100
AcDbEntity
100
AcDbLine
8
ACERO_LEADERS
10
2.75
20
21.39
30
0
11
3.05
21
21.39
31
0
0
TEXT
5
11C
330
11
100
AcDbEntity
100
AcDbText
8
ACERO_LEADERS
10
3.0999999999999996
20
21.41
30
0
40
0.08
1
1∅1/2"@20cm
50
0
100
AcDbText
0
LINE
5
11D
330
11
100
AcDbEntity
100
AcDbLine
8
ACERO_LEADERS
10
6.4340437709183
20
20.94972752043875
30
0
11
5.4340437709183
21
23.94972752043875
31
0
0
LINE
5
11E
330
11
100
AcDbEntity
100
AcDbLine
8
ACERO_LEADERS
10
6.4340437709183
20
20.94972752043875
30
0
11
6.432956328945575
21
20.9997156937396
31
0
0
LINE
5
11F
330
11
100
AcDbEntity
100
AcDbLine
8
ACERO_LEADERS
10
6.4340437709183
20
20.94972752043875
30
0
11
6.40492082051597
21
20.990370524263067
31
0
0
LINE
5
120
330
11
100
AcDbEntity
100
AcDbLine
8
ACERO_LEADERS
10
5.4340437709183
20
23.94972752043875
30
0
11
5.7340437709183
21
23.94972752043875
31
0
0
TEXT
5
121
330
11
100
AcDbEntity
100
AcDbText
8
ACERO_LEADERS
10
5.7840437709182995
20
23.96972752043875
30
0
40
0.08
1
1∅1/2"@20cm
50
0
100
AcDbText
0
LINE
5
122
330
11
100
AcDbEntity
100
AcDbLine
8
ACERO_LEADERS
10
6.966666666666667
20
28.05
30
0
11
7.966666666666667
21
28.35
31
0
0
LINE
5
123
330
11
100
AcDbEntity
100
AcDbLine
8
ACERO_LEADERS
10
6.966666666666667
20
28.05
30
0
11
7.01666484201875
21
28.04957284492002
31
0
0
LINE
5
124
330
11
100
AcDbEntity
100
AcDbLine
8
ACERO_LEADERS
10
6.966666666666667
20
28.05
30
0
11
7.0081731313661235
21
28.07787854709544
31
0
0
LINE
5
125
330
11
100
AcDbEntity
100
AcDbLine
8
ACERO_LEADERS
10
7.966666666666667
20
28.35
30
0
11
8.266666666666667
21
28.35
31
0
0
TEXT
5
126
330
11
100
AcDbEntity
100
AcDbText
8
ACERO_LEADERS
10
8.316666666666668
20
28.37
30
0
40
0.08
1
1∅3/8"@20cm
50
0
100
AcDbText
0
LINE
5
128
330
11
100
AcDbEntity
100
AcDbLine
8
MURO_DRENAJE
10
14.6
20
20.8
30
0
11
19.78
21
20.8
31
0
0
LINE
5
129
330
11
100
AcDbEntity
100
AcDbLine
8
MURO_DRENAJE
10
19.78
20
20.8
30
0
11
19.78
21
21.54
31
0
0
LINE
5
12A
330
11
100
AcDbEntity
100
AcDbLine
8
MURO_DRENAJE
10
19.78
20
21.54
30
0
11
17.066666666666666
21
21.54
31
0
0
LINE
5
12B
330
11
100
AcDbEntity
100
AcDbLine
8
MURO_DRENAJE
10
17.066666666666666
20
21.54
30
0
11
17.066666666666666
21
28.200000000000003
31
0
0
LINE
5
12C
330
11
100
AcDbEntity
100
AcDbLine
8
MURO_DRENAJE
10
17.066666666666666
20
28.200000000000003
30
0
11
16.866666666666667
21
28.200000000000003
31
0
0
LINE
5
12D
330
11
100
AcDbEntity
100
AcDbLine
8
MURO_DRENAJE
10
16.866666666666667
20
28.200000000000003
30
0
11
16.326666666666668
21
21.54
31
0
0
LINE
5
12E
330
11
100
AcDbEntity
100
AcDbLine
8
MURO_DRENAJE
10
16.326666666666668
20
21.54
30
0
11
14.6
21
21.54
31
0
0
LINE
5
12F
330
11
100
AcDbEntity
100
AcDbLine
8
MURO_DRENAJE
10
14.6
20
21.54
30
0
11
14.6
21
20.8
31
0
0
LINE
5
131
330
11
100
AcDbEntity
100
AcDbLine
8
SUELO_DRENAJE
10
16.326666666666668
20
21.8
30
0
11
14.6
21
21.8
31
0
0
LINE
5
133
330
11
100
AcDbEntity
100
AcDbLine
8
TUBO_PB
10
16.42882882882883
20
22.825
30
0
11
16.898675139221783
21
22.996010071662834
31
0
0
LINE
5
134
330
11
100
AcDbEntity
100
AcDbLine
8
TUBO_PB
10
16.42882882882883
20
22.775000000000002
30
0
11
16.898675139221783
21
22.946010071662837
31
0
0
LINE
5
135
330
11
100
AcDbEntity
100
AcDbLine
8
TUBO_PB
10
16.50990990990991
20
23.825
30
0
11
16.928454082627525
21
23.977337620594785
31
0
0
LINE
5
136
330
11
100
AcDbEntity
100
AcDbLine
8
TUBO_PB
10
16.50990990990991
20
23.775000000000002
30
0
11
16.928454082627525
21
23.927337620594788
31
0
0
LINE
5
137
330
11
100
AcDbEntity
100
AcDbLine
8
TUBO_PB
10
16.590990990990992
20
24.825
30
0
11
16.94858212884682
21
24.955152530216903
31
0
0
LINE
5
138
330
11
100
AcDbEntity
100
AcDbLine
8
TUBO_PB
10
16.590990990990992
20
24.775000000000002
30
0
11
16.94858212884682
21
24.905152530216906
31
0
0
LINE
5
139
330
11
100
AcDbEntity
100
AcDbLine
8
TUBO_PB
10
16.672072072072073
20
25.825
30
0
11
16.96871017506611
21
25.93296743983902
31
0
0
LINE
5
13A
330
11
100
AcDbEntity
100
AcDbLine
8
TUBO_PB
10
16.672072072072073
20
25.775000000000002
30
0
11
16.96871017506611
21
25.882967439839025
31
0
0
LINE
5
13B
330
11
100
AcDbEntity
100
AcDbLine
8
TUBO_PB
10
16.753153153153153
20
26.825
30
0
11
16.988838221285402
21
26.91078234946114
31
0
0
LINE
5
13C
330
11
100
AcDbEntity
100
AcDbLine
8
TUBO_PB
10
16.753153153153153
20
26.775000000000002
30
0
11
16.988838221285402
21
26.860782349461143
31
0
0
LINE
5
13D
330
11
100
AcDbEntity
100
AcDbLine
8
TUBO_PB
10
16.834234234234234
20
27.825
30
0
11
17.008966267504693
21
27.88859725908326
31
0
0
LINE
5
13E
330
11
100
AcDbEntity
100
AcDbLine
8
TUBO_PB
10
16.834234234234234
20
27.775000000000002
30
0
11
17.008966267504693
21
27.83859725908326
31
0
0
LINE
5
140
330
11
100
AcDbEntity
100
AcDbLine
8
COTAS_DRENAJE
10
14.6
20
20.8
30
0
11
14.6
21
19.900000000000002
31
0
0
LINE
5
141
330
11
100
AcDbEntity
100
AcDbLine
8
COTAS_DRENAJE
10
19.78
20
20.8
30
0
11
19.78
21
19.900000000000002
31
0
0
LINE
5
142
330
11
100
AcDbEntity
100
AcDbLine
8
COTAS_DRENAJE
10
14.6
20
20
30
0
11
19.78
21
20
31
0
0
LINE
5
143
330
11
100
AcDbEntity
100
AcDbLine
8
COTAS_DRENAJE
10
14.6
20
20
30
0
11
14.65
21
20.05
31
0
0
LINE
5
144
330
11
100
AcDbEntity
100
AcDbLine
8
COTAS_DRENAJE
10
14.6
20
20
30
0
11
14.65
21
19.95
31
0
0
LINE
5
145
330
11
100
AcDbEntity
100
AcDbLine
8
COTAS_DRENAJE
10
19.78
20
20
30
0
11
19.73
21
20.05
31
0
0
LINE
5
146
330
11
100
AcDbEntity
100
AcDbLine
8
COTAS_DRENAJE
10
19.78
20
20
30
0
11
19.73
21
19.95
31
0
0
TEXT
5
147
330
11
100
AcDbEntity
100
AcDbText
8
COTAS_DRENAJE
10
17.09
20
19.6
30
0
40
0.1
1
5.18
50
0
100
AcDbText
0
LINE
5
148
330
11
100
AcDbEntity
100
AcDbLine
8
COTAS_DRENAJE
10
14.6
20
20.8
30
0
11
14.6
21
20.400000000000002
31
0
0
LINE
5
149
330
11
100
AcDbEntity
100
AcDbLine
8
COTAS_DRENAJE
10
16.326666666666668
20
20.8
30
0
11
16.326666666666668
21
20.400000000000002
31
0
0
LINE
5
14A
330
11
100
AcDbEntity
100
AcDbLine
8
COTAS_DRENAJE
10
14.6
20
20.5
30
0
11
16.326666666666668
21
20.5
31
0
0
LINE
5
14B
330
11
100
AcDbEntity
100
AcDbLine
8
COTAS_DRENAJE
10
14.6
20
20.5
30
0
11
14.65
21
20.55
31
0
0
LINE
5
14C
330
11
100
AcDbEntity
100
AcDbLine
8
COTAS_DRENAJE
10
14.6
20
20.5
30
0
11
14.65
21
20.45
31
0
0
LINE
5
14D
330
11
100
AcDbEntity
100
AcDbLine
8
COTAS_DRENAJE
10
16.326666666666668
20
20.5
30
0
11
16.276666666666667
21
20.55
31
0
0
LINE
5
14E
330
11
100
AcDbEntity
100
AcDbLine
8
COTAS_DRENAJE
10
16.326666666666668
20
20.5
30
0
11
16.276666666666667
21
20.45
31
0
0
TEXT
5
14F
330
11
100
AcDbEntity
100
AcDbText
8
COTAS_DRENAJE
10
15.363333333333335
20
20.1
30
0
40
0.1
1
2.27
50
0
100
AcDbText
0
LINE
5
150
330
11
100
AcDbEntity
100
AcDbLine
8
COTAS_DRENAJE
10
17.066666666666666
20
20.8
30
0
11
17.066666666666666
21
20.400000000000002
31
0
0
LINE
5
151
330
11
100
AcDbEntity
100
AcDbLine
8
COTAS_DRENAJE
10
19.78
20
20.8
30
0
11
19.78
21
20.400000000000002
31
0
0
LINE
5
152
330
11
100
AcDbEntity
100
AcDbLine
8
COTAS_DRENAJE
10
17.066666666666666
20
20.5
30
0
11
19.78
21
20.5
31
0
0
LINE
5
153
330
11
100
AcDbEntity
100
AcDbLine
8
COTAS_DRENAJE
10
17.066666666666666
20
20.5
30
0
11
17.116666666666667
21
20.55
31
0
0
LINE
5
154
330
11
100
AcDbEntity
100
AcDbLine
8
COTAS_DRENAJE
10
17.066666666666666
20
20.5
30
0
11
17.116666666666667
21
20.45
31
0
0
LINE
5
155
330
11
100
AcDbEntity
100
AcDbLine
8
COTAS_DRENAJE
10
19.78
20
20.5
30
0
11
19.73
21
20.55
31
0
0
LINE
5
156
330
11
100
AcDbEntity
100
AcDbLine
8
COTAS_DRENAJE
10
19.78
20
20.5
30
0
11
19.73
21
20.45
31
0
0
TEXT
5
157
330
11
100
AcDbEntity
100
AcDbText
8
COTAS_DRENAJE
10
18.32333333333333
20
20.1
30
0
40
0.1
1
2.71
50
0
100
AcDbText
0
LINE
5
158
330
11
100
AcDbEntity
100
AcDbLine
8
COTAS_DRENAJE
10
16.326666666666668
20
20.8
30
0
11
16.326666666666668
21
20.400000000000002
31
0
0
LINE
5
159
330
11
100
AcDbEntity
100
AcDbLine
8
COTAS_DRENAJE
10
17.066666666666666
20
20.8
30
0
11
17.066666666666666
21
20.400000000000002
31
0
0
LINE
5
15A
330
11
100
AcDbEntity
100
AcDbLine
8
COTAS_DRENAJE
10
16.326666666666668
20
20.5
30
0
11
17.066666666666666
21
20.5
31
0
0
LINE
5
15B
330
11
100
AcDbEntity
100
AcDbLine
8
COTAS_DRENAJE
10
16.326666666666668
20
20.5
30
0
11
16.37666666666667
21
20.55
31
0
0
LINE
5
15C
330
11
100
AcDbEntity
100
AcDbLine
8
COTAS_DRENAJE
10
16.326666666666668
20
20.5
30
0
11
16.37666666666667
21
20.45
31
0
0
LINE
5
15D
330
11
100
AcDbEntity
100
AcDbLine
8
COTAS_DRENAJE
10
17.066666666666666
20
20.5
30
0
11
17.016666666666666
21
20.55
31
0
0
LINE
5
15E
330
11
100
AcDbEntity
100
AcDbLine
8
COTAS_DRENAJE
10
17.066666666666666
20
20.5
30
0
11
17.016666666666666
21
20.45
31
0
0
TEXT
5
15F
330
11
100
AcDbEntity
100
AcDbText
8
COTAS_DRENAJE
10
16.596666666666664
20
20.1
30
0
40
0.1
1
0.74
50
0
100
AcDbText
0
LINE
5
160
330
11
100
AcDbEntity
100
AcDbLine
8
COTAS_DRENAJE
10
19.78
20
20.8
30
0
11
20.68
21
20.8
31
0
0
LINE
5
161
330
11
100
AcDbEntity
100
AcDbLine
8
COTAS_DRENAJE
10
19.78
20
28.200000000000003
30
0
11
20.68
21
28.200000000000003
31
0
0
LINE
5
162
330
11
100
AcDbEntity
100
AcDbLine
8
COTAS_DRENAJE
10
20.580000000000002
20
20.8
30
0
11
20.580000000000002
21
28.200000000000003
31
0
0
LINE
5
163
330
11
100
AcDbEntity
100
AcDbLine
8
COTAS_DRENAJE
10
20.580000000000002
20
20.8
30
0
11
20.630000000000003
21
20.85
31
0
0
LINE
5
164
330
11
100
AcDbEntity
100
AcDbLine
8
COTAS_DRENAJE
10
20.580000000000002
20
20.8
30
0
11
20.53
21
20.85
31
0
0
LINE
5
165
330
11
100
AcDbEntity
100
AcDbLine
8
COTAS_DRENAJE
10
20.580000000000002
20
28.200000000000003
30
0
11
20.630000000000003
21
28.150000000000002
31
0
0
LINE
5
166
330
11
100
AcDbEntity
100
AcDbLine
8
COTAS_DRENAJE
10
20.580000000000002
20
28.200000000000003
30
0
11
20.53
21
28.150000000000002
31
0
0
TEXT
5
167
330
11
100
AcDbEntity
100
AcDbText
8
COTAS_DRENAJE
10
20.78
20
24.4
30
0
40
0.1
1
7.40
50
90
100
AcDbText
0
LINE
5
168
330
11
100
AcDbEntity
100
AcDbLine
8
COTAS_DRENAJE
10
14.6
20
20.8
30
0
11
14.2
21
20.8
31
0
0
LINE
5
169
330
11
100
AcDbEntity
100
AcDbLine
8
COTAS_DRENAJE
10
14.6
20
21.54
30
0
11
14.2
21
21.54
31
0
0
LINE
5
16A
330
11
100
AcDbEntity
100
AcDbLine
8
COTAS_DRENAJE
10
14.299999999999999
20
20.8
30
0
11
14.299999999999999
21
21.54
31
0
0
LINE
5
16B
330
11
100
AcDbEntity
100
AcDbLine
8
COTAS_DRENAJE
10
14.299999999999999
20
20.8
30
0
11
14.35
21
20.85
31
0
0
LINE
5
16C
330
11
100
AcDbEntity
100
AcDbLine
8
COTAS_DRENAJE
10
14.299999999999999
20
20.8
30
0
11
14.249999999999998
21
20.85
31
0
0
LINE
5
16D
330
11
100
AcDbEntity
100
AcDbLine
8
COTAS_DRENAJE
10
14.299999999999999
20
21.54
30
0
11
14.35
21
21.49
31
0
0
LINE
5
16E
330
11
100
AcDbEntity
100
AcDbLine
8
COTAS_DRENAJE
10
14.299999999999999
20
21.54
30
0
11
14.249999999999998
21
21.49
31
0
0
TEXT
5
16F
330
11
100
AcDbEntity
100
AcDbText
8
COTAS_DRENAJE
10
13.899999999999999
20
21.07
30
0
40
0.1
1
0.74
50
90
100
AcDbText
0
LINE
5
170
330
11
100
AcDbEntity
100
AcDbLine
8
COTAS_DRENAJE
10
14.6
20
21.54
30
0
11
14.2
21
21.54
31
0
0
LINE
5
171
330
11
100
AcDbEntity
100
AcDbLine
8
COTAS_DRENAJE
10
14.6
20
21.8
30
0
11
14.2
21
21.8
31
0
0
LINE
5
172
330
11
100
AcDbEntity
100
AcDbLine
8
COTAS_DRENAJE
10
14.299999999999999
20
21.54
30
0
11
14.299999999999999
21
21.8
31
0
0
LINE
5
173
330
11
100
AcDbEntity
100
AcDbLine
8
COTAS_DRENAJE
10
14.299999999999999
20
21.54
30
0
11
14.35
21
21.59
31
0
0
LINE
5
174
330
11
100
AcDbEntity
100
AcDbLine
8
COTAS_DRENAJE
10
14.299999999999999
20
21.54
30
0
11
14.249999999999998
21
21.59
31
0
0
LINE
5
175
330
11
100
AcDbEntity
100
AcDbLine
8
COTAS_DRENAJE
10
14.299999999999999
20
21.8
30
0
11
14.35
21
21.75
31
0
0
LINE
5
176
330
11
100
AcDbEntity
100
AcDbLine
8
COTAS_DRENAJE
10
14.299999999999999
20
21.8
30
0
11
14.249999999999998
21
21.75
31
0
0
TEXT
5
177
330
11
100
AcDbEntity
100
AcDbText
8
COTAS_DRENAJE
10
13.899999999999999
20
21.57
30
0
40
0.1
1
0.26
50
90
100
AcDbText
0
LINE
5
178
330
11
100
AcDbEntity
100
AcDbLine
8
COTAS_DRENAJE
10
14.6
20
21.8
30
0
11
14.2
21
21.8
31
0
0
LINE
5
179
330
11
100
AcDbEntity
100
AcDbLine
8
COTAS_DRENAJE
10
14.6
20
22.8
30
0
11
14.2
21
22.8
31
0
0
LINE
5
17A
330
11
100
AcDbEntity
100
AcDbLine
8
COTAS_DRENAJE
10
14.299999999999999
20
21.8
30
0
11
14.299999999999999
21
22.8
31
0
0
LINE
5
17B
330
11
100
AcDbEntity
100
AcDbLine
8
COTAS_DRENAJE
10
14.299999999999999
20
21.8
30
0
11
14.35
21
21.85
31
0
0
LINE
5
17C
330
11
100
AcDbEntity
100
AcDbLine
8
COTAS_DRENAJE
10
14.299999999999999
20
21.8
30
0
11
14.249999999999998
21
21.85
31
0
0
LINE
5
17D
330
11
100
AcDbEntity
100
AcDbLine
8
COTAS_DRENAJE
10
14.299999999999999
20
22.8
30
0
11
14.35
21
22.75
31
0
0
LINE
5
17E
330
11
100
AcDbEntity
100
AcDbLine
8
COTAS_DRENAJE
10
14.299999999999999
20
22.8
30
0
11
14.249999999999998
21
22.75
31
0
0
TEXT
5
17F
330
11
100
AcDbEntity
100
AcDbText
8
COTAS_DRENAJE
10
13.899999999999999
20
22.2
30
0
40
0.1
1
1.00
50
90
100
AcDbText
0
LINE
5
180
330
11
100
AcDbEntity
100
AcDbLine
8
COTAS_DRENAJE
10
14.6
20
22.8
30
0
11
14.2
21
22.8
31
0
0
LINE
5
181
330
11
100
AcDbEntity
100
AcDbLine
8
COTAS_DRENAJE
10
14.6
20
23.8
30
0
11
14.2
21
23.8
31
0
0
LINE
5
182
330
11
100
AcDbEntity
100
AcDbLine
8
COTAS_DRENAJE
10
14.299999999999999
20
22.8
30
0
11
14.299999999999999
21
23.8
31
0
0
LINE
5
183
330
11
100
AcDbEntity
100
AcDbLine
8
COTAS_DRENAJE
10
14.299999999999999
20
22.8
30
0
11
14.35
21
22.85
31
0
0
LINE
5
184
330
11
100
AcDbEntity
100
AcDbLine
8
COTAS_DRENAJE
10
14.299999999999999
20
22.8
30
0
11
14.249999999999998
21
22.85
31
0
0
LINE
5
185
330
11
100
AcDbEntity
100
AcDbLine
8
COTAS_DRENAJE
10
14.299999999999999
20
23.8
30
0
11
14.35
21
23.75
31
0
0
LINE
5
186
330
11
100
AcDbEntity
100
AcDbLine
8
COTAS_DRENAJE
10
14.299999999999999
20
23.8
30
0
11
14.249999999999998
21
23.75
31
0
0
TEXT
5
187
330
11
100
AcDbEntity
100
AcDbText
8
COTAS_DRENAJE
10
13.899999999999999
20
23.2
30
0
40
0.1
1
1.00
50
90
100
AcDbText
0
LINE
5
188
330
11
100
AcDbEntity
100
AcDbLine
8
COTAS_DRENAJE
10
14.6
20
23.8
30
0
11
14.2
21
23.8
31
0
0
LINE
5
189
330
11
100
AcDbEntity
100
AcDbLine
8
COTAS_DRENAJE
10
14.6
20
24.8
30
0
11
14.2
21
24.8
31
0
0
LINE
5
18A
330
11
100
AcDbEntity
100
AcDbLine
8
COTAS_DRENAJE
10
14.299999999999999
20
23.8
30
0
11
14.299999999999999
21
24.8
31
0
0
LINE
5
18B
330
11
100
AcDbEntity
100
AcDbLine
8
COTAS_DRENAJE
10
14.299999999999999
20
23.8
30
0
11
14.35
21
23.85
31
0
0
LINE
5
18C
330
11
100
AcDbEntity
100
AcDbLine
8
COTAS_DRENAJE
10
14.299999999999999
20
23.8
30
0
11
14.249999999999998
21
23.85
31
0
0
LINE
5
18D
330
11
100
AcDbEntity
100
AcDbLine
8
COTAS_DRENAJE
10
14.299999999999999
20
24.8
30
0
11
14.35
21
24.75
31
0
0
LINE
5
18E
330
11
100
AcDbEntity
100
AcDbLine
8
COTAS_DRENAJE
10
14.299999999999999
20
24.8
30
0
11
14.249999999999998
21
24.75
31
0
0
TEXT
5
18F
330
11
100
AcDbEntity
100
AcDbText
8
COTAS_DRENAJE
10
13.899999999999999
20
24.2
30
0
40
0.1
1
1.00
50
90
100
AcDbText
0
LINE
5
190
330
11
100
AcDbEntity
100
AcDbLine
8
COTAS_DRENAJE
10
14.6
20
24.8
30
0
11
14.2
21
24.8
31
0
0
LINE
5
191
330
11
100
AcDbEntity
100
AcDbLine
8
COTAS_DRENAJE
10
14.6
20
25.8
30
0
11
14.2
21
25.8
31
0
0
LINE
5
192
330
11
100
AcDbEntity
100
AcDbLine
8
COTAS_DRENAJE
10
14.299999999999999
20
24.8
30
0
11
14.299999999999999
21
25.8
31
0
0
LINE
5
193
330
11
100
AcDbEntity
100
AcDbLine
8
COTAS_DRENAJE
10
14.299999999999999
20
24.8
30
0
11
14.35
21
24.85
31
0
0
LINE
5
194
330
11
100
AcDbEntity
100
AcDbLine
8
COTAS_DRENAJE
10
14.299999999999999
20
24.8
30
0
11
14.249999999999998
21
24.85
31
0
0
LINE
5
195
330
11
100
AcDbEntity
100
AcDbLine
8
COTAS_DRENAJE
10
14.299999999999999
20
25.8
30
0
11
14.35
21
25.75
31
0
0
LINE
5
196
330
11
100
AcDbEntity
100
AcDbLine
8
COTAS_DRENAJE
10
14.299999999999999
20
25.8
30
0
11
14.249999999999998
21
25.75
31
0
0
TEXT
5
197
330
11
100
AcDbEntity
100
AcDbText
8
COTAS_DRENAJE
10
13.899999999999999
20
25.2
30
0
40
0.1
1
1.00
50
90
100
AcDbText
0
LINE
5
198
330
11
100
AcDbEntity
100
AcDbLine
8
COTAS_DRENAJE
10
14.6
20
25.8
30
0
11
14.2
21
25.8
31
0
0
LINE
5
199
330
11
100
AcDbEntity
100
AcDbLine
8
COTAS_DRENAJE
10
14.6
20
26.8
30
0
11
14.2
21
26.8
31
0
0
LINE
5
19A
330
11
100
AcDbEntity
100
AcDbLine
8
COTAS_DRENAJE
10
14.299999999999999
20
25.8
30
0
11
14.299999999999999
21
26.8
31
0
0
LINE
5
19B
330
11
100
AcDbEntity
100
AcDbLine
8
COTAS_DRENAJE
10
14.299999999999999
20
25.8
30
0
11
14.35
21
25.85
31
0
0
LINE
5
19C
330
11
100
AcDbEntity
100
AcDbLine
8
COTAS_DRENAJE
10
14.299999999999999
20
25.8
30
0
11
14.249999999999998
21
25.85
31
0
0
LINE
5
19D
330
11
100
AcDbEntity
100
AcDbLine
8
COTAS_DRENAJE
10
14.299999999999999
20
26.8
30
0
11
14.35
21
26.75
31
0
0
LINE
5
19E
330
11
100
AcDbEntity
100
AcDbLine
8
COTAS_DRENAJE
10
14.299999999999999
20
26.8
30
0
11
14.249999999999998
21
26.75
31
0
0
TEXT
5
19F
330
11
100
AcDbEntity
100
AcDbText
8
COTAS_DRENAJE
10
13.899999999999999
20
26.2
30
0
40
0.1
1
1.00
50
90
100
AcDbText
0
LINE
5
1A0
330
11
100
AcDbEntity
100
AcDbLine
8
COTAS_DRENAJE
10
14.6
20
26.8
30
0
11
14.2
21
26.8
31
0
0
LINE
5
1A1
330
11
100
AcDbEntity
100
AcDbLine
8
COTAS_DRENAJE
10
14.6
20
27.8
30
0
11
14.2
21
27.8
31
0
0
LINE
5
1A2
330
11
100
AcDbEntity
100
AcDbLine
8
COTAS_DRENAJE
10
14.299999999999999
20
26.8
30
0
11
14.299999999999999
21
27.8
31
0
0
LINE
5
1A3
330
11
100
AcDbEntity
100
AcDbLine
8
COTAS_DRENAJE
10
14.299999999999999
20
26.8
30
0
11
14.35
21
26.85
31
0
0
LINE
5
1A4
330
11
100
AcDbEntity
100
AcDbLine
8
COTAS_DRENAJE
10
14.299999999999999
20
26.8
30
0
11
14.249999999999998
21
26.85
31
0
0
LINE
5
1A5
330
11
100
AcDbEntity
100
AcDbLine
8
COTAS_DRENAJE
10
14.299999999999999
20
27.8
30
0
11
14.35
21
27.75
31
0
0
LINE
5
1A6
330
11
100
AcDbEntity
100
AcDbLine
8
COTAS_DRENAJE
10
14.299999999999999
20
27.8
30
0
11
14.249999999999998
21
27.75
31
0
0
TEXT
5
1A7
330
11
100
AcDbEntity
100
AcDbText
8
COTAS_DRENAJE
10
13.899999999999999
20
27.2
30
0
40
0.1
1
1.00
50
90
100
AcDbText
0
LINE
5
1A8
330
11
100
AcDbEntity
100
AcDbLine
8
COTAS_DRENAJE
10
14.6
20
27.8
30
0
11
14.2
21
27.8
31
0
0
LINE
5
1A9
330
11
100
AcDbEntity
100
AcDbLine
8
COTAS_DRENAJE
10
14.6
20
28.200000000000003
30
0
11
14.2
21
28.200000000000003
31
0
0
LINE
5
1AA
330
11
100
AcDbEntity
100
AcDbLine
8
COTAS_DRENAJE
10
14.299999999999999
20
27.8
30
0
11
14.299999999999999
21
28.200000000000003
31
0
0
LINE
5
1AB
330
11
100
AcDbEntity
100
AcDbLine
8
COTAS_DRENAJE
10
14.299999999999999
20
27.8
30
0
11
14.35
21
27.85
31
0
0
LINE
5
1AC
330
11
100
AcDbEntity
100
AcDbLine
8
COTAS_DRENAJE
10
14.299999999999999
20
27.8
30
0
11
14.249999999999998
21
27.85
31
0
0
LINE
5
1AD
330
11
100
AcDbEntity
100
AcDbLine
8
COTAS_DRENAJE
10
14.299999999999999
20
28.200000000000003
30
0
11
14.35
21
28.150000000000002
31
0
0
LINE
5
1AE
330
11
100
AcDbEntity
100
AcDbLine
8
COTAS_DRENAJE
10
14.299999999999999
20
28.200000000000003
30
0
11
14.249999999999998
21
28.150000000000002
31
0
0
TEXT
5
1AF
330
11
100
AcDbEntity
100
AcDbText
8
COTAS_DRENAJE
10
13.899999999999999
20
27.9
30
0
40
0.1
1
0.40
50
90
100
AcDbText
0
CIRCLE
5
1B1
330
11
100
AcDbEntity
100
AcDbCircle
8
TITULO_DRENAJE
10
13.6
20
18.299999999999997
30
0
40
0.4
0
TEXT
5
1B2
330
11
100
AcDbEntity
100
AcDbText
8
TITULO_DRENAJE
10
13.6
20
18.299999999999997
30
0
40
0.15
1
2
50
0
100
AcDbText
0
TEXT
5
1B3
330
11
100
AcDbEntity
100
AcDbText
8
TITULO_DRENAJE
10
14.2
20
18.299999999999997
30
0
40
0.12
1
DRENAJE DE MURO TIPO I_CORTE 1-1
50
0
100
AcDbText
0
TEXT
5
1B4
330
11
100
AcDbEntity
100
AcDbText
8
TITULO_DRENAJE
10
14.2
20
18.099999999999998
30
0
40
0.1
1
ESC. 1:50
50
0
100
AcDbText
0
LINE
5
1B6
330
11
100
AcDbEntity
100
AcDbLine
8
MURO_MC3D
10
24.6
20
20.8
30
0
11
29.78
21
20.8
31
0
0
LINE
5
1B7
330
11
100
AcDbEntity
100
AcDbLine
8
MURO_MC3D
10
29.78
20
20.8
30
0
11
29.78
21
21.54
31
0
0
LINE
5
1B8
330
11
100
AcDbEntity
100
AcDbLine
8
MURO_MC3D
10
29.78
20
21.54
30
0
11
27.06666666666667
21
21.54
31
0
0
LINE
5
1B9
330
11
100
AcDbEntity
100
AcDbLine
8
MURO_MC3D
10
27.06666666666667
20
21.54
30
0
11
27.06666666666667
21
28.200000000000003
31
0
0
LINE
5
1BA
330
11
100
AcDbEntity
100
AcDbLine
8
MURO_MC3D
10
27.06666666666667
20
28.200000000000003
30
0
11
26.866666666666667
21
28.200000000000003
31
0
0
LINE
5
1BB
330
11
100
AcDbEntity
100
AcDbLine
8
MURO_MC3D
10
26.866666666666667
20
28.200000000000003
30
0
11
26.326666666666668
21
21.54
31
0
0
LINE
5
1BC
330
11
100
AcDbEntity
100
AcDbLine
8
MURO_MC3D
10
26.326666666666668
20
21.54
30
0
11
24.6
21
21.54
31
0
0
LINE
5
1BD
330
11
100
AcDbEntity
100
AcDbLine
8
MURO_MC3D
10
24.6
20
21.54
30
0
11
24.6
21
20.8
31
0
0
LINE
5
1BE
330
11
100
AcDbEntity
100
AcDbLine
8
MURO_MC3D
10
24.6
20
20.8
30
0
11
26.6
21
22.8
31
0
0
LINE
5
1BF
330
11
100
AcDbEntity
100
AcDbLine
8
MURO_MC3D
10
29.78
20
20.8
30
0
11
31.78
21
22.8
31
0
0
LINE
5
1C0
330
11
100
AcDbEntity
100
AcDbLine
8
MURO_MC3D
10
29.78
20
21.54
30
0
11
31.78
21
23.54
31
0
0
LINE
5
1C1
330
11
100
AcDbEntity
100
AcDbLine
8
MURO_MC3D
10
27.06666666666667
20
21.54
30
0
11
29.06666666666667
21
23.54
31
0
0
LINE
5
1C2
330
11
100
AcDbEntity
100
AcDbLine
8
MURO_MC3D
10
27.06666666666667
20
28.200000000000003
30
0
11
29.06666666666667
21
30.200000000000003
31
0
0
LINE
5
1C3
330
11
100
AcDbEntity
100
AcDbLine
8
MURO_MC3D
10
26.866666666666667
20
28.200000000000003
30
0
11
28.866666666666667
21
30.200000000000003
31
0
0
LINE
5
1C4
330
11
100
AcDbEntity
100
AcDbLine
8
MURO_MC3D
10
26.326666666666668
20
21.54
30
0
11
28.326666666666668
21
23.54
31
0
0
LINE
5
1C5
330
11
100
AcDbEntity
100
AcDbLine
8
MURO_MC3D
10
24.6
20
21.54
30
0
11
26.6
21
23.54
31
0
0
LINE
5
1C6
330
11
100
AcDbEntity
100
AcDbLine
8
MURO_MC3D
10
24.6
20
20.8
30
0
11
26.6
21
22.8
31
0
0
LINE
5
1C7
330
11
100
AcDbEntity
100
AcDbLine
8
MURO_MC3D
10
26.6
20
22.8
30
0
11
31.78
21
22.8
31
0
0
LINE
5
1C8
330
11
100
AcDbEntity
100
AcDbLine
8
MURO_MC3D
10
31.78
20
22.8
30
0
11
31.78
21
23.54
31
0
0
LINE
5
1C9
330
11
100
AcDbEntity
100
AcDbLine
8
MURO_MC3D
10
31.78
20
23.54
30
0
11
29.06666666666667
21
23.54
31
0
0
LINE
5
1CA
330
11
100
AcDbEntity
100
AcDbLine
8
MURO_MC3D
10
29.06666666666667
20
23.54
30
0
11
29.06666666666667
21
30.200000000000003
31
0
0
LINE
5
1CB
330
11
100
AcDbEntity
100
AcDbLine
8
MURO_MC3D
10
29.06666666666667
20
30.200000000000003
30
0
11
28.866666666666667
21
30.200000000000003
31
0
0
LINE
5
1CC
330
11
100
AcDbEntity
100
AcDbLine
8
MURO_MC3D
10
28.866666666666667
20
30.200000000000003
30
0
11
28.326666666666668
21
23.54
31
0
0
LINE
5
1CD
330
11
100
AcDbEntity
100
AcDbLine
8
MURO_MC3D
10
28.326666666666668
20
23.54
30
0
11
26.6
21
23.54
31
0
0
LINE
5
1CE
330
11
100
AcDbEntity
100
AcDbLine
8
MURO_MC3D
10
26.6
20
23.54
30
0
11
26.6
21
22.8
31
0
0
CIRCLE
5
1D0
330
11
100
AcDbEntity
100
AcDbCircle
8
TITULO_MC3D
10
23.6
20
18.299999999999997
30
0
40
0.4
0
TEXT
5
1D1
330
11
100
AcDbEntity
100
AcDbText
8
TITULO_MC3D
10
23.6
20
18.299999999999997
30
0
40
0.15
1
3
50
0
100
AcDbText
0
TEXT
5
1D2
330
11
100
AcDbEntity
100
AcDbText
8
TITULO_MC3D
10
24.200000000000003
20
18.299999999999997
30
0
40
0.12
1
MURO DE CONTENCIÓN VISTA 3D
50
0
100
AcDbText
0
TEXT
5
1D3
330
11
100
AcDbEntity
100
AcDbText
8
TITULO_MC3D
10
24.200000000000003
20
18.099999999999998
30
0
40
0.1
1
ESC. 1:50
50
0
100
AcDbText
0
LINE
5
1D7
330
11
100
AcDbEntity
100
AcDbLine
8
MALLA_VERT_INTERIOR
10
5.6
20
3
30
0
11
5.6
21
9.66
31
0
0
LINE
5
1D8
330
11
100
AcDbEntity
100
AcDbLine
8
MALLA_VERT_INTERIOR
10
5.8
20
3
30
0
11
5.8
21
9.66
31
0
0
LINE
5
1D9
330
11
100
AcDbEntity
100
AcDbLine
8
MALLA_VERT_INTERIOR
10
6
20
3
30
0
11
6
21
9.66
31
0
0
LINE
5
1DA
330
11
100
AcDbEntity
100
AcDbLine
8
MALLA_VERT_INTERIOR
10
6.199999999999999
20
3
30
0
11
6.199999999999999
21
9.66
31
0
0
LINE
5
1DB
330
11
100
AcDbEntity
100
AcDbLine
8
MALLA_VERT_INTERIOR
10
6.3999999999999995
20
3
30
0
11
6.3999999999999995
21
9.66
31
0
0
LINE
5
1DC
330
11
100
AcDbEntity
100
AcDbLine
8
MALLA_VERT_INTERIOR
10
6.6
20
3
30
0
11
6.6
21
9.66
31
0
0
LINE
5
1DD
330
11
100
AcDbEntity
100
AcDbLine
8
MALLA_VERT_INTERIOR
10
6.8
20
3
30
0
11
6.8
21
9.66
31
0
0
LINE
5
1DE
330
11
100
AcDbEntity
100
AcDbLine
8
MALLA_VERT_INTERIOR
10
7
20
3
30
0
11
7
21
9.66
31
0
0
LINE
5
1DF
330
11
100
AcDbEntity
100
AcDbLine
8
MALLA_VERT_INTERIOR
10
7.199999999999999
20
3
30
0
11
7.199999999999999
21
9.66
31
0
0
LINE
5
1E0
330
11
100
AcDbEntity
100
AcDbLine
8
MALLA_VERT_INTERIOR
10
7.3999999999999995
20
3
30
0
11
7.3999999999999995
21
9.66
31
0
0
LINE
5
1E1
330
11
100
AcDbEntity
100
AcDbLine
8
MALLA_VERT_INTERIOR
10
7.6
20
3
30
0
11
7.6
21
9.66
31
0
0
LINE
5
1E2
330
11
100
AcDbEntity
100
AcDbLine
8
MALLA_VERT_INTERIOR
10
7.8
20
3
30
0
11
7.8
21
9.66
31
0
0
LINE
5
1E3
330
11
100
AcDbEntity
100
AcDbLine
8
MALLA_VERT_INTERIOR
10
8
20
3
30
0
11
8
21
9.66
31
0
0
LINE
5
1E4
330
11
100
AcDbEntity
100
AcDbLine
8
MALLA_VERT_INTERIOR
10
8.2
20
3
30
0
11
8.2
21
9.66
31
0
0
LINE
5
1E5
330
11
100
AcDbEntity
100
AcDbLine
8
MALLA_VERT_INTERIOR
10
8.4
20
3
30
0
11
8.4
21
9.66
31
0
0
LINE
5
1E6
330
11
100
AcDbEntity
100
AcDbLine
8
MALLA_VERT_INTERIOR
10
8.6
20
3
30
0
11
8.6
21
9.66
31
0
0
LINE
5
1E7
330
11
100
AcDbEntity
100
AcDbLine
8
MALLA_VERT_INTERIOR
10
8.8
20
3
30
0
11
8.8
21
9.66
31
0
0
LINE
5
1E8
330
11
100
AcDbEntity
100
AcDbLine
8
MALLA_VERT_INTERIOR
10
9
20
3
30
0
11
9
21
9.66
31
0
0
LINE
5
1E9
330
11
100
AcDbEntity
100
AcDbLine
8
MALLA_VERT_INTERIOR
10
9.2
20
3
30
0
11
9.2
21
9.66
31
0
0
LINE
5
1EA
330
11
100
AcDbEntity
100
AcDbLine
8
MALLA_VERT_INTERIOR
10
9.4
20
3
30
0
11
9.4
21
9.66
31
0
0
LINE
5
1EB
330
11
100
AcDbEntity
100
AcDbLine
8
MALLA_VERT_INTERIOR
10
9.6
20
3
30
0
11
9.6
21
9.66
31
0
0
LINE
5
1EC
330
11
100
AcDbEntity
100
AcDbLine
8
MALLA_HORIZ_INTERIOR
10
5.6
20
3
30
0
11
9.6
21
3
31
0
0
LINE
5
1ED
330
11
100
AcDbEntity
100
AcDbLine
8
MALLA_HORIZ_INTERIOR
10
5.6
20
3.2
30
0
11
9.6
21
3.2
31
0
0
LINE
5
1EE
330
11
100
AcDbEntity
100
AcDbLine
8
MALLA_HORIZ_INTERIOR
10
5.6
20
3.4
30
0
11
9.6
21
3.4
31
0
0
LINE
5
1EF
330
11
100
AcDbEntity
100
AcDbLine
8
MALLA_HORIZ_INTERIOR
10
5.6
20
3.6
30
0
11
9.6
21
3.6
31
0
0
LINE
5
1F0
330
11
100
AcDbEntity
100
AcDbLine
8
MALLA_HORIZ_INTERIOR
10
5.6
20
3.8
30
0
11
9.6
21
3.8
31
0
0
LINE
5
1F1
330
11
100
AcDbEntity
100
AcDbLine
8
MALLA_HORIZ_INTERIOR
10
5.6
20
4
30
0
11
9.6
21
4
31
0
0
LINE
5
1F2
330
11
100
AcDbEntity
100
AcDbLine
8
MALLA_HORIZ_INTERIOR
10
5.6
20
4.2
30
0
11
9.6
21
4.2
31
0
0
LINE
5
1F3
330
11
100
AcDbEntity
100
AcDbLine
8
MALLA_HORIZ_INTERIOR
10
5.6
20
4.4
30
0
11
9.6
21
4.4
31
0
0
LINE
5
1F4
330
11
100
AcDbEntity
100
AcDbLine
8
MALLA_HORIZ_INTERIOR
10
5.6
20
4.6
30
0
11
9.6
21
4.6
31
0
0
LINE
5
1F5
330
11
100
AcDbEntity
100
AcDbLine
8
MALLA_HORIZ_INTERIOR
10
5.6
20
4.8
30
0
11
9.6
21
4.8
31
0
0
LINE
5
1F6
330
11
100
AcDbEntity
100
AcDbLine
8
MALLA_HORIZ_INTERIOR
10
5.6
20
5
30
0
11
9.6
21
5
31
0
0
LINE
5
1F7
330
11
100
AcDbEntity
100
AcDbLine
8
MALLA_HORIZ_INTERIOR
10
5.6
20
5.2
30
0
11
9.6
21
5.2
31
0
0
LINE
5
1F8
330
11
100
AcDbEntity
100
AcDbLine
8
MALLA_HORIZ_INTERIOR
10
5.6
20
5.4
30
0
11
9.6
21
5.4
31
0
0
LINE
5
1F9
330
11
100
AcDbEntity
100
AcDbLine
8
MALLA_HORIZ_INTERIOR
10
5.6
20
5.6
30
0
11
9.6
21
5.6
31
0
0
LINE
5
1FA
330
11
100
AcDbEntity
100
AcDbLine
8
MALLA_HORIZ_INTERIOR
10
5.6
20
5.800000000000001
30
0
11
9.6
21
5.800000000000001
31
0
0
LINE
5
1FB
330
11
100
AcDbEntity
100
AcDbLine
8
MALLA_HORIZ_INTERIOR
10
5.6
20
6
30
0
11
9.6
21
6
31
0
0
LINE
5
1FC
330
11
100
AcDbEntity
100
AcDbLine
8
MALLA_HORIZ_INTERIOR
10
5.6
20
6.2
30
0
11
9.6
21
6.2
31
0
0
LINE
5
1FD
330
11
100
AcDbEntity
100
AcDbLine
8
MALLA_HORIZ_INTERIOR
10
5.6
20
6.4
30
0
11
9.6
21
6.4
31
0
0
LINE
5
1FE
330
11
100
AcDbEntity
100
AcDbLine
8
MALLA_HORIZ_INTERIOR
10
5.6
20
6.6
30
0
11
9.6
21
6.6
31
0
0
LINE
5
1FF
330
11
100
AcDbEntity
100
AcDbLine
8
MALLA_HORIZ_INTERIOR
10
5.6
20
6.800000000000001
30
0
11
9.6
21
6.800000000000001
31
0
0
LINE
5
200
330
11
100
AcDbEntity
100
AcDbLine
8
MALLA_HORIZ_INTERIOR
10
5.6
20
7
30
0
11
9.6
21
7
31
0
0
LINE
5
201
330
11
100
AcDbEntity
100
AcDbLine
8
MALLA_HORIZ_INTERIOR
10
5.6
20
7.2
30
0
11
9.6
21
7.2
31
0
0
LINE
5
202
330
11
100
AcDbEntity
100
AcDbLine
8
MALLA_HORIZ_INTERIOR
10
5.6
20
7.4
30
0
11
9.6
21
7.4
31
0
0
LINE
5
203
330
11
100
AcDbEntity
100
AcDbLine
8
MALLA_HORIZ_INTERIOR
10
5.6
20
7.6000000000000005
30
0
11
9.6
21
7.6000000000000005
31
0
0
LINE
5
204
330
11
100
AcDbEntity
100
AcDbLine
8
MALLA_HORIZ_INTERIOR
10
5.6
20
7.800000000000001
30
0
11
9.6
21
7.800000000000001
31
0
0
LINE
5
205
330
11
100
AcDbEntity
100
AcDbLine
8
MALLA_HORIZ_INTERIOR
10
5.6
20
8
30
0
11
9.6
21
8
31
0
0
LINE
5
206
330
11
100
AcDbEntity
100
AcDbLine
8
MALLA_HORIZ_INTERIOR
10
5.6
20
8.2
30
0
11
9.6
21
8.2
31
0
0
LINE
5
207
330
11
100
AcDbEntity
100
AcDbLine
8
MALLA_HORIZ_INTERIOR
10
5.6
20
8.4
30
0
11
9.6
21
8.4
31
0
0
LINE
5
208
330
11
100
AcDbEntity
100
AcDbLine
8
MALLA_HORIZ_INTERIOR
10
5.6
20
8.600000000000001
30
0
11
9.6
21
8.600000000000001
31
0
0
LINE
5
209
330
11
100
AcDbEntity
100
AcDbLine
8
MALLA_HORIZ_INTERIOR
10
5.6
20
8.8
30
0
11
9.6
21
8.8
31
0
0
LINE
5
20A
330
11
100
AcDbEntity
100
AcDbLine
8
MALLA_HORIZ_INTERIOR
10
5.6
20
9
30
0
11
9.6
21
9
31
0
0
LINE
5
20B
330
11
100
AcDbEntity
100
AcDbLine
8
MALLA_HORIZ_INTERIOR
10
5.6
20
9.2
30
0
11
9.6
21
9.2
31
0
0
LINE
5
20C
330
11
100
AcDbEntity
100
AcDbLine
8
MALLA_HORIZ_INTERIOR
10
5.6
20
9.4
30
0
11
9.6
21
9.4
31
0
0
LINE
5
20D
330
11
100
AcDbEntity
100
AcDbLine
8
MALLA_HORIZ_INTERIOR
10
5.6
20
9.600000000000001
30
0
11
9.6
21
9.600000000000001
31
0
0
LINE
5
20E
330
11
100
AcDbEntity
100
AcDbLine
8
MARCO_INTERIOR
10
5.6
20
3
30
0
11
9.6
21
3
31
0
0
LINE
5
20F
330
11
100
AcDbEntity
100
AcDbLine
8
MARCO_INTERIOR
10
9.6
20
3
30
0
11
9.6
21
9.66
31
0
0
LINE
5
210
330
11
100
AcDbEntity
100
AcDbLine
8
MARCO_INTERIOR
10
9.6
20
9.66
30
0
11
5.6
21
9.66
31
0
0
LINE
5
211
330
11
100
AcDbEntity
100
AcDbLine
8
MARCO_INTERIOR
10
5.6
20
9.66
30
0
11
5.6
21
3
31
0
0
LINE
5
213
330
11
100
AcDbEntity
100
AcDbLine
8
COTAS_INTERIOR
10
5.6
20
3
30
0
11
5.6
21
2.8
31
0
0
LINE
5
214
330
11
100
AcDbEntity
100
AcDbLine
8
COTAS_INTERIOR
10
9.6
20
3
30
0
11
9.6
21
2.8
31
0
0
LINE
5
215
330
11
100
AcDbEntity
100
AcDbLine
8
COTAS_INTERIOR
10
5.6
20
2.9
30
0
11
9.6
21
2.9
31
0
0
LINE
5
216
330
11
100
AcDbEntity
100
AcDbLine
8
COTAS_INTERIOR
10
5.6
20
2.9
30
0
11
5.6499999999999995
21
2.9499999999999997
31
0
0
LINE
5
217
330
11
100
AcDbEntity
100
AcDbLine
8
COTAS_INTERIOR
10
5.6
20
2.9
30
0
11
5.6499999999999995
21
2.85
31
0
0
LINE
5
218
330
11
100
AcDbEntity
100
AcDbLine
8
COTAS_INTERIOR
10
9.6
20
2.9
30
0
11
9.549999999999999
21
2.9499999999999997
31
0
0
LINE
5
219
330
11
100
AcDbEntity
100
AcDbLine
8
COTAS_INTERIOR
10
9.6
20
2.9
30
0
11
9.549999999999999
21
2.85
31
0
0
TEXT
5
21A
330
11
100
AcDbEntity
100
AcDbText
8
COTAS_INTERIOR
10
7.5
20
2.5
30
0
40
0.1
1
4.00m
50
0
100
AcDbText
0
LINE
5
21B
330
11
100
AcDbEntity
100
AcDbLine
8
COTAS_INTERIOR
10
9.6
20
3
30
0
11
9.799999999999999
21
3
31
0
0
LINE
5
21C
330
11
100
AcDbEntity
100
AcDbLine
8
COTAS_INTERIOR
10
9.6
20
9.66
30
0
11
9.799999999999999
21
9.66
31
0
0
LINE
5
21D
330
11
100
AcDbEntity
100
AcDbLine
8
COTAS_INTERIOR
10
9.7
20
3
30
0
11
9.7
21
9.66
31
0
0
LINE
5
21E
330
11
100
AcDbEntity
100
AcDbLine
8
COTAS_INTERIOR
10
9.7
20
3
30
0
11
9.75
21
3.05
31
0
0
LINE
5
21F
330
11
100
AcDbEntity
100
AcDbLine
8
COTAS_INTERIOR
10
9.7
20
3
30
0
11
9.649999999999999
21
3.05
31
0
0
LINE
5
220
330
11
100
AcDbEntity
100
AcDbLine
8
COTAS_INTERIOR
10
9.7
20
9.66
30
0
11
9.75
21
9.61
31
0
0
LINE
5
221
330
11
100
AcDbEntity
100
AcDbLine
8
COTAS_INTERIOR
10
9.7
20
9.66
30
0
11
9.649999999999999
21
9.61
31
0
0
TEXT
5
222
330
11
100
AcDbEntity
100
AcDbText
8
COTAS_INTERIOR
10
9.899999999999999
20
6.23
30
0
40
0.1
1
6.66m
50
90
100
AcDbText
0
LINE
5
223
330
11
100
AcDbEntity
100
AcDbLine
8
COTAS_INTERIOR
10
5.6
20
9.66
30
0
11
5.6
21
10.06
31
0
0
LINE
5
224
330
11
100
AcDbEntity
100
AcDbLine
8
COTAS_INTERIOR
10
5.8
20
9.66
30
0
11
5.8
21
10.06
31
0
0
LINE
5
225
330
11
100
AcDbEntity
100
AcDbLine
8
COTAS_INTERIOR
10
5.6
20
9.96
30
0
11
5.8
21
9.96
31
0
0
LINE
5
226
330
11
100
AcDbEntity
100
AcDbLine
8
COTAS_INTERIOR
10
5.6
20
9.96
30
0
11
5.6499999999999995
21
10.010000000000002
31
0
0
LINE
5
227
330
11
100
AcDbEntity
100
AcDbLine
8
COTAS_INTERIOR
10
5.6
20
9.96
30
0
11
5.6499999999999995
21
9.91
31
0
0
LINE
5
228
330
11
100
AcDbEntity
100
AcDbLine
8
COTAS_INTERIOR
10
5.8
20
9.96
30
0
11
5.75
21
10.010000000000002
31
0
0
LINE
5
229
330
11
100
AcDbEntity
100
AcDbLine
8
COTAS_INTERIOR
10
5.8
20
9.96
30
0
11
5.75
21
9.91
31
0
0
TEXT
5
22A
330
11
100
AcDbEntity
100
AcDbText
8
COTAS_INTERIOR
10
5.6
20
10.16
30
0
40
0.1
1
1∅3/8"@20cm
50
0
100
AcDbText
0
TEXT
5
22C
330
11
100
AcDbEntity
100
AcDbText
8
INFO_INTERIOR
10
4.6
20
2
30
0
40
0.15
1
ACERO EN CARA INTERIOR_EJE A-A
50
0
100
AcDbText
0
TEXT
5
22D
330
11
100
AcDbEntity
100
AcDbText
8
INFO_INTERIOR
10
4.6
20
1.7
30
0
40
0.1
1
ESC. 1:50
50
0
100
AcDbText
0
CIRCLE
5
22E
330
11
100
AcDbEntity
100
AcDbCircle
8
INFO_INTERIOR
10
4.1
20
2
30
0
40
0.3
0
TEXT
5
22F
330
11
100
AcDbEntity
100
AcDbText
8
INFO_INTERIOR
10
4.1
20
2
30
0
40
0.12
1
4
50
0
100
AcDbText
0
LINE
5
233
330
11
100
AcDbEntity
100
AcDbLine
8
MALLA_VERT_EXTERIOR
10
15.6
20
3
30
0
11
15.6
21
9.66
31
0
0
LINE
5
234
330
11
100
AcDbEntity
100
AcDbLine
8
MALLA_VERT_EXTERIOR
10
15.799999999999999
20
3
30
0
11
15.799999999999999
21
9.66
31
0
0
LINE
5
235
330
11
100
AcDbEntity
100
AcDbLine
8
MALLA_VERT_EXTERIOR
10
16
20
3
30
0
11
16
21
9.66
31
0
0
LINE
5
236
330
11
100
AcDbEntity
100
AcDbLine
8
MALLA_VERT_EXTERIOR
10
16.2
20
3
30
0
11
16.2
21
9.66
31
0
0
LINE
5
237
330
11
100
AcDbEntity
100
AcDbLine
8
MALLA_VERT_EXTERIOR
10
16.4
20
3
30
0
11
16.4
21
9.66
31
0
0
LINE
5
238
330
11
100
AcDbEntity
100
AcDbLine
8
MALLA_VERT_EXTERIOR
10
16.6
20
3
30
0
11
16.6
21
9.66
31
0
0
LINE
5
239
330
11
100
AcDbEntity
100
AcDbLine
8
MALLA_VERT_EXTERIOR
10
16.8
20
3
30
0
11
16.8
21
9.66
31
0
0
LINE
5
23A
330
11
100
AcDbEntity
100
AcDbLine
8
MALLA_VERT_EXTERIOR
10
17
20
3
30
0
11
17
21
9.66
31
0
0
LINE
5
23B
330
11
100
AcDbEntity
100
AcDbLine
8
MALLA_VERT_EXTERIOR
10
17.2
20
3
30
0
11
17.2
21
9.66
31
0
0
LINE
5
23C
330
11
100
AcDbEntity
100
AcDbLine
8
MALLA_VERT_EXTERIOR
10
17.4
20
3
30
0
11
17.4
21
9.66
31
0
0
LINE
5
23D
330
11
100
AcDbEntity
100
AcDbLine
8
MALLA_VERT_EXTERIOR
10
17.6
20
3
30
0
11
17.6
21
9.66
31
0
0
LINE
5
23E
330
11
100
AcDbEntity
100
AcDbLine
8
MALLA_VERT_EXTERIOR
10
17.8
20
3
30
0
11
17.8
21
9.66
31
0
0
LINE
5
23F
330
11
100
AcDbEntity
100
AcDbLine
8
MALLA_VERT_EXTERIOR
10
18
20
3
30
0
11
18
21
9.66
31
0
0
LINE
5
240
330
11
100
AcDbEntity
100
AcDbLine
8
MALLA_VERT_EXTERIOR
10
18.2
20
3
30
0
11
18.2
21
9.66
31
0
0
LINE
5
241
330
11
100
AcDbEntity
100
AcDbLine
8
MALLA_VERT_EXTERIOR
10
18.4
20
3
30
0
11
18.4
21
9.66
31
0
0
LINE
5
242
330
11
100
AcDbEntity
100
AcDbLine
8
MALLA_VERT_EXTERIOR
10
18.6
20
3
30
0
11
18.6
21
9.66
31
0
0
LINE
5
243
330
11
100
AcDbEntity
100
AcDbLine
8
MALLA_VERT_EXTERIOR
10
18.8
20
3
30
0
11
18.8
21
9.66
31
0
0
LINE
5
244
330
11
100
AcDbEntity
100
AcDbLine
8
MALLA_VERT_EXTERIOR
10
19
20
3
30
0
11
19
21
9.66
31
0
0
LINE
5
245
330
11
100
AcDbEntity
100
AcDbLine
8
MALLA_VERT_EXTERIOR
10
19.2
20
3
30
0
11
19.2
21
9.66
31
0
0
LINE
5
246
330
11
100
AcDbEntity
100
AcDbLine
8
MALLA_VERT_EXTERIOR
10
19.4
20
3
30
0
11
19.4
21
9.66
31
0
0
LINE
5
247
330
11
100
AcDbEntity
100
AcDbLine
8
MALLA_VERT_EXTERIOR
10
19.6
20
3
30
0
11
19.6
21
9.66
31
0
0
LINE
5
248
330
11
100
AcDbEntity
100
AcDbLine
8
MALLA_HORIZ_EXTERIOR
10
15.6
20
3
30
0
11
19.6
21
3
31
0
0
LINE
5
249
330
11
100
AcDbEntity
100
AcDbLine
8
MALLA_HORIZ_EXTERIOR
10
15.6
20
3.2
30
0
11
19.6
21
3.2
31
0
0
LINE
5
24A
330
11
100
AcDbEntity
100
AcDbLine
8
MALLA_HORIZ_EXTERIOR
10
15.6
20
3.4
30
0
11
19.6
21
3.4
31
0
0
LINE
5
24B
330
11
100
AcDbEntity
100
AcDbLine
8
MALLA_HORIZ_EXTERIOR
10
15.6
20
3.6
30
0
11
19.6
21
3.6
31
0
0
LINE
5
24C
330
11
100
AcDbEntity
100
AcDbLine
8
MALLA_HORIZ_EXTERIOR
10
15.6
20
3.8
30
0
11
19.6
21
3.8
31
0
0
LINE
5
24D
330
11
100
AcDbEntity
100
AcDbLine
8
MALLA_HORIZ_EXTERIOR
10
15.6
20
4
30
0
11
19.6
21
4
31
0
0
LINE
5
24E
330
11
100
AcDbEntity
100
AcDbLine
8
MALLA_HORIZ_EXTERIOR
10
15.6
20
4.2
30
0
11
19.6
21
4.2
31
0
0
LINE
5
24F
330
11
100
AcDbEntity
100
AcDbLine
8
MALLA_HORIZ_EXTERIOR
10
15.6
20
4.4
30
0
11
19.6
21
4.4
31
0
0
LINE
5
250
330
11
100
AcDbEntity
100
AcDbLine
8
MALLA_HORIZ_EXTERIOR
10
15.6
20
4.6
30
0
11
19.6
21
4.6
31
0
0
LINE
5
251
330
11
100
AcDbEntity
100
AcDbLine
8
MALLA_HORIZ_EXTERIOR
10
15.6
20
4.8
30
0
11
19.6
21
4.8
31
0
0
LINE
5
252
330
11
100
AcDbEntity
100
AcDbLine
8
MALLA_HORIZ_EXTERIOR
10
15.6
20
5
30
0
11
19.6
21
5
31
0
0
LINE
5
253
330
11
100
AcDbEntity
100
AcDbLine
8
MALLA_HORIZ_EXTERIOR
10
15.6
20
5.2
30
0
11
19.6
21
5.2
31
0
0
LINE
5
254
330
11
100
AcDbEntity
100
AcDbLine
8
MALLA_HORIZ_EXTERIOR
10
15.6
20
5.4
30
0
11
19.6
21
5.4
31
0
0
LINE
5
255
330
11
100
AcDbEntity
100
AcDbLine
8
MALLA_HORIZ_EXTERIOR
10
15.6
20
5.6
30
0
11
19.6
21
5.6
31
0
0
LINE
5
256
330
11
100
AcDbEntity
100
AcDbLine
8
MALLA_HORIZ_EXTERIOR
10
15.6
20
5.800000000000001
30
0
11
19.6
21
5.800000000000001
31
0
0
LINE
5
257
330
11
100
AcDbEntity
100
AcDbLine
8
MALLA_HORIZ_EXTERIOR
10
15.6
20
6
30
0
11
19.6
21
6
31
0
0
LINE
5
258
330
11
100
AcDbEntity
100
AcDbLine
8
MALLA_HORIZ_EXTERIOR
10
15.6
20
6.2
30
0
11
19.6
21
6.2
31
0
0
LINE
5
259
330
11
100
AcDbEntity
100
AcDbLine
8
MALLA_HORIZ_EXTERIOR
10
15.6
20
6.4
30
0
11
19.6
21
6.4
31
0
0
LINE
5
25A
330
11
100
AcDbEntity
100
AcDbLine
8
MALLA_HORIZ_EXTERIOR
10
15.6
20
6.6
30
0
11
19.6
21
6.6
31
0
0
LINE
5
25B
330
11
100
AcDbEntity
100
AcDbLine
8
MALLA_HORIZ_EXTERIOR
10
15.6
20
6.800000000000001
30
0
11
19.6
21
6.800000000000001
31
0
0
LINE
5
25C
330
11
100
AcDbEntity
100
AcDbLine
8
MALLA_HORIZ_EXTERIOR
10
15.6
20
7
30
0
11
19.6
21
7
31
0
0
LINE
5
25D
330
11
100
AcDbEntity
100
AcDbLine
8
MALLA_HORIZ_EXTERIOR
10
15.6
20
7.2
30
0
11
19.6
21
7.2
31
0
0
LINE
5
25E
330
11
100
AcDbEntity
100
AcDbLine
8
MALLA_HORIZ_EXTERIOR
10
15.6
20
7.4
30
0
11
19.6
21
7.4
31
0
0
LINE
5
25F
330
11
100
AcDbEntity
100
AcDbLine
8
MALLA_HORIZ_EXTERIOR
10
15.6
20
7.6000000000000005
30
0
11
19.6
21
7.6000000000000005
31
0
0
LINE
5
260
330
11
100
AcDbEntity
100
AcDbLine
8
MALLA_HORIZ_EXTERIOR
10
15.6
20
7.800000000000001
30
0
11
19.6
21
7.800000000000001
31
0
0
LINE
5
261
330
11
100
AcDbEntity
100
AcDbLine
8
MALLA_HORIZ_EXTERIOR
10
15.6
20
8
30
0
11
19.6
21
8
31
0
0
LINE
5
262
330
11
100
AcDbEntity
100
AcDbLine
8
MALLA_HORIZ_EXTERIOR
10
15.6
20
8.2
30
0
11
19.6
21
8.2
31
0
0
LINE
5
263
330
11
100
AcDbEntity
100
AcDbLine
8
MALLA_HORIZ_EXTERIOR
10
15.6
20
8.4
30
0
11
19.6
21
8.4
31
0
0
LINE
5
264
330
11
100
AcDbEntity
100
AcDbLine
8
MALLA_HORIZ_EXTERIOR
10
15.6
20
8.600000000000001
30
0
11
19.6
21
8.600000000000001
31
0
0
LINE
5
265
330
11
100
AcDbEntity
100
AcDbLine
8
MALLA_HORIZ_EXTERIOR
10
15.6
20
8.8
30
0
11
19.6
21
8.8
31
0
0
LINE
5
266
330
11
100
AcDbEntity
100
AcDbLine
8
MALLA_HORIZ_EXTERIOR
10
15.6
20
9
30
0
11
19.6
21
9
31
0
0
LINE
5
267
330
11
100
AcDbEntity
100
AcDbLine
8
MALLA_HORIZ_EXTERIOR
10
15.6
20
9.2
30
0
11
19.6
21
9.2
31
0
0
LINE
5
268
330
11
100
AcDbEntity
100
AcDbLine
8
MALLA_HORIZ_EXTERIOR
10
15.6
20
9.4
30
0
11
19.6
21
9.4
31
0
0
LINE
5
269
330
11
100
AcDbEntity
100
AcDbLine
8
MALLA_HORIZ_EXTERIOR
10
15.6
20
9.600000000000001
30
0
11
19.6
21
9.600000000000001
31
0
0
LINE
5
26A
330
11
100
AcDbEntity
100
AcDbLine
8
MARCO_EXTERIOR
10
15.6
20
3
30
0
11
19.6
21
3
31
0
0
LINE
5
26B
330
11
100
AcDbEntity
100
AcDbLine
8
MARCO_EXTERIOR
10
19.6
20
3
30
0
11
19.6
21
9.66
31
0
0
LINE
5
26C
330
11
100
AcDbEntity
100
AcDbLine
8
MARCO_EXTERIOR
10
19.6
20
9.66
30
0
11
15.6
21
9.66
31
0
0
LINE
5
26D
330
11
100
AcDbEntity
100
AcDbLine
8
MARCO_EXTERIOR
10
15.6
20
9.66
30
0
11
15.6
21
3
31
0
0
LINE
5
26F
330
11
100
AcDbEntity
100
AcDbLine
8
COTAS_EXTERIOR
10
15.6
20
3
30
0
11
15.6
21
2.8
31
0
0
LINE
5
270
330
11
100
AcDbEntity
100
AcDbLine
8
COTAS_EXTERIOR
10
19.6
20
3
30
0
11
19.6
21
2.8
31
0
0
LINE
5
271
330
11
100
AcDbEntity
100
AcDbLine
8
COTAS_EXTERIOR
10
15.6
20
2.9
30
0
11
19.6
21
2.9
31
0
0
LINE
5
272
330
11
100
AcDbEntity
100
AcDbLine
8
COTAS_EXTERIOR
10
15.6
20
2.9
30
0
11
15.65
21
2.9499999999999997
31
0
0
LINE
5
273
330
11
100
AcDbEntity
100
AcDbLine
8
COTAS_EXTERIOR
10
15.6
20
2.9
30
0
11
15.65
21
2.85
31
0
0
LINE
5
274
330
11
100
AcDbEntity
100
AcDbLine
8
COTAS_EXTERIOR
10
19.6
20
2.9
30
0
11
19.55
21
2.9499999999999997
31
0
0
LINE
5
275
330
11
100
AcDbEntity
100
AcDbLine
8
COTAS_EXTERIOR
10
19.6
20
2.9
30
0
11
19.55
21
2.85
31
0
0
TEXT
5
276
330
11
100
AcDbEntity
100
AcDbText
8
COTAS_EXTERIOR
10
17.5
20
2.5
30
0
40
0.1
1
4.00m
50
0
100
AcDbText
0
LINE
5
277
330
11
100
AcDbEntity
100
AcDbLine
8
COTAS_EXTERIOR
10
19.6
20
3
30
0
11
19.8
21
3
31
0
0
LINE
5
278
330
11
100
AcDbEntity
100
AcDbLine
8
COTAS_EXTERIOR
10
19.6
20
9.66
30
0
11
19.8
21
9.66
31
0
0
LINE
5
279
330
11
100
AcDbEntity
100
AcDbLine
8
COTAS_EXTERIOR
10
19.700000000000003
20
3
30
0
11
19.700000000000003
21
9.66
31
0
0
LINE
5
27A
330
11
100
AcDbEntity
100
AcDbLine
8
COTAS_EXTERIOR
10
19.700000000000003
20
3
30
0
11
19.750000000000004
21
3.05
31
0
0
LINE
5
27B
330
11
100
AcDbEntity
100
AcDbLine
8
COTAS_EXTERIOR
10
19.700000000000003
20
3
30
0
11
19.650000000000002
21
3.05
31
0
0
LINE
5
27C
330
11
100
AcDbEntity
100
AcDbLine
8
COTAS_EXTERIOR
10
19.700000000000003
20
9.66
30
0
11
19.750000000000004
21
9.61
31
0
0
LINE
5
27D
330
11
100
AcDbEntity
100
AcDbLine
8
COTAS_EXTERIOR
10
19.700000000000003
20
9.66
30
0
11
19.650000000000002
21
9.61
31
0
0
TEXT
5
27E
330
11
100
AcDbEntity
100
AcDbText
8
COTAS_EXTERIOR
10
19.900000000000002
20
6.23
30
0
40
0.1
1
6.66m
50
90
100
AcDbText
0
LINE
5
27F
330
11
100
AcDbEntity
100
AcDbLine
8
COTAS_EXTERIOR
10
15.6
20
9.66
30
0
11
15.6
21
10.06
31
0
0
LINE
5
280
330
11
100
AcDbEntity
100
AcDbLine
8
COTAS_EXTERIOR
10
15.799999999999999
20
9.66
30
0
11
15.799999999999999
21
10.06
31
0
0
LINE
5
281
330
11
100
AcDbEntity
100
AcDbLine
8
COTAS_EXTERIOR
10
15.6
20
9.96
30
0
11
15.799999999999999
21
9.96
31
0
0
LINE
5
282
330
11
100
AcDbEntity
100
AcDbLine
8
COTAS_EXTERIOR
10
15.6
20
9.96
30
0
11
15.65
21
10.010000000000002
31
0
0
LINE
5
283
330
11
100
AcDbEntity
100
AcDbLine
8
COTAS_EXTERIOR
10
15.6
20
9.96
30
0
11
15.65
21
9.91
31
0
0
LINE
5
284
330
11
100
AcDbEntity
100
AcDbLine
8
COTAS_EXTERIOR
10
15.799999999999999
20
9.96
30
0
11
15.749999999999998
21
10.010000000000002
31
0
0
LINE
5
285
330
11
100
AcDbEntity
100
AcDbLine
8
COTAS_EXTERIOR
10
15.799999999999999
20
9.96
30
0
11
15.749999999999998
21
9.91
31
0
0
TEXT
5
286
330
11
100
AcDbEntity
100
AcDbText
8
COTAS_EXTERIOR
10
15.6
20
10.16
30
0
40
0.1
1
1∅3/8"@20cm
50
0
100
AcDbText
0
TEXT
5
288
330
11
100
AcDbEntity
100
AcDbText
8
INFO_EXTERIOR
10
14.6
20
2
30
0
40
0.15
1
ACERO EN CARA EXTERIOR_EJE A-A
50
0
100
AcDbText
0
TEXT
5
289
330
11
100
AcDbEntity
100
AcDbText
8
INFO_EXTERIOR
10
14.6
20
1.7
30
0
40
0.1
1
ESC. 1:50
50
0
100
AcDbText
0
CIRCLE
5
28A
330
11
100
AcDbEntity
100
AcDbCircle
8
INFO_EXTERIOR
10
14.1
20
2
30
0
40
0.3
0
TEXT
5
28B
330
11
100
AcDbEntity
100
AcDbText
8
INFO_EXTERIOR
10
14.1
20
2
30
0
40
0.12
1
5
50
0
100
AcDbText
0
LINE
5
28F
330
11
100
AcDbEntity
100
AcDbLine
8
MALLA_VERT_INFERIOR
10
25.6
20
3
30
0
11
25.6
21
8.18
31
0
0
LINE
5
290
330
11
100
AcDbEntity
100
AcDbLine
8
MALLA_VERT_INFERIOR
10
25.8
20
3
30
0
11
25.8
21
8.18
31
0
0
LINE
5
291
330
11
100
AcDbEntity
100
AcDbLine
8
MALLA_VERT_INFERIOR
10
26
20
3
30
0
11
26
21
8.18
31
0
0
LINE
5
292
330
11
100
AcDbEntity
100
AcDbLine
8
MALLA_VERT_INFERIOR
10
26.200000000000003
20
3
30
0
11
26.200000000000003
21
8.18
31
0
0
LINE
5
293
330
11
100
AcDbEntity
100
AcDbLine
8
MALLA_VERT_INFERIOR
10
26.400000000000002
20
3
30
0
11
26.400000000000002
21
8.18
31
0
0
LINE
5
294
330
11
100
AcDbEntity
100
AcDbLine
8
MALLA_VERT_INFERIOR
10
26.6
20
3
30
0
11
26.6
21
8.18
31
0
0
LINE
5
295
330
11
100
AcDbEntity
100
AcDbLine
8
MALLA_VERT_INFERIOR
10
26.8
20
3
30
0
11
26.8
21
8.18
31
0
0
LINE
5
296
330
11
100
AcDbEntity
100
AcDbLine
8
MALLA_VERT_INFERIOR
10
27
20
3
30
0
11
27
21
8.18
31
0
0
LINE
5
297
330
11
100
AcDbEntity
100
AcDbLine
8
MALLA_VERT_INFERIOR
10
27.200000000000003
20
3
30
0
11
27.200000000000003
21
8.18
31
0
0
LINE
5
298
330
11
100
AcDbEntity
100
AcDbLine
8
MALLA_VERT_INFERIOR
10
27.400000000000002
20
3
30
0
11
27.400000000000002
21
8.18
31
0
0
LINE
5
299
330
11
100
AcDbEntity
100
AcDbLine
8
MALLA_VERT_INFERIOR
10
27.6
20
3
30
0
11
27.6
21
8.18
31
0
0
LINE
5
29A
330
11
100
AcDbEntity
100
AcDbLine
8
MALLA_VERT_INFERIOR
10
27.8
20
3
30
0
11
27.8
21
8.18
31
0
0
LINE
5
29B
330
11
100
AcDbEntity
100
AcDbLine
8
MALLA_VERT_INFERIOR
10
28
20
3
30
0
11
28
21
8.18
31
0
0
LINE
5
29C
330
11
100
AcDbEntity
100
AcDbLine
8
MALLA_VERT_INFERIOR
10
28.200000000000003
20
3
30
0
11
28.200000000000003
21
8.18
31
0
0
LINE
5
29D
330
11
100
AcDbEntity
100
AcDbLine
8
MALLA_VERT_INFERIOR
10
28.400000000000002
20
3
30
0
11
28.400000000000002
21
8.18
31
0
0
LINE
5
29E
330
11
100
AcDbEntity
100
AcDbLine
8
MALLA_VERT_INFERIOR
10
28.6
20
3
30
0
11
28.6
21
8.18
31
0
0
LINE
5
29F
330
11
100
AcDbEntity
100
AcDbLine
8
MALLA_VERT_INFERIOR
10
28.8
20
3
30
0
11
28.8
21
8.18
31
0
0
LINE
5
2A0
330
11
100
AcDbEntity
100
AcDbLine
8
MALLA_VERT_INFERIOR
10
29
20
3
30
0
11
29
21
8.18
31
0
0
LINE
5
2A1
330
11
100
AcDbEntity
100
AcDbLine
8
MALLA_VERT_INFERIOR
10
29.200000000000003
20
3
30
0
11
29.200000000000003
21
8.18
31
0
0
LINE
5
2A2
330
11
100
AcDbEntity
100
AcDbLine
8
MALLA_VERT_INFERIOR
10
29.400000000000002
20
3
30
0
11
29.400000000000002
21
8.18
31
0
0
LINE
5
2A3
330
11
100
AcDbEntity
100
AcDbLine
8
MALLA_VERT_INFERIOR
10
29.6
20
3
30
0
11
29.6
21
8.18
31
0
0
LINE
5
2A4
330
11
100
AcDbEntity
100
AcDbLine
8
MALLA_HORIZ_INFERIOR
10
25.6
20
3
30
0
11
29.6
21
3
31
0
0
LINE
5
2A5
330
11
100
AcDbEntity
100
AcDbLine
8
MALLA_HORIZ_INFERIOR
10
25.6
20
3.2
30
0
11
29.6
21
3.2
31
0
0
LINE
5
2A6
330
11
100
AcDbEntity
100
AcDbLine
8
MALLA_HORIZ_INFERIOR
10
25.6
20
3.4
30
0
11
29.6
21
3.4
31
0
0
LINE
5
2A7
330
11
100
AcDbEntity
100
AcDbLine
8
MALLA_HORIZ_INFERIOR
10
25.6
20
3.6
30
0
11
29.6
21
3.6
31
0
0
LINE
5
2A8
330
11
100
AcDbEntity
100
AcDbLine
8
MALLA_HORIZ_INFERIOR
10
25.6
20
3.8
30
0
11
29.6
21
3.8
31
0
0
LINE
5
2A9
330
11
100
AcDbEntity
100
AcDbLine
8
MALLA_HORIZ_INFERIOR
10
25.6
20
4
30
0
11
29.6
21
4
31
0
0
LINE
5
2AA
330
11
100
AcDbEntity
100
AcDbLine
8
MALLA_HORIZ_INFERIOR
10
25.6
20
4.2
30
0
11
29.6
21
4.2
31
0
0
LINE
5
2AB
330
11
100
AcDbEntity
100
AcDbLine
8
MALLA_HORIZ_INFERIOR
10
25.6
20
4.4
30
0
11
29.6
21
4.4
31
0
0
LINE
5
2AC
330
11
100
AcDbEntity
100
AcDbLine
8
MALLA_HORIZ_INFERIOR
10
25.6
20
4.6
30
0
11
29.6
21
4.6
31
0
0
LINE
5
2AD
330
11
100
AcDbEntity
100
AcDbLine
8
MALLA_HORIZ_INFERIOR
10
25.6
20
4.8
30
0
11
29.6
21
4.8
31
0
0
LINE
5
2AE
330
11
100
AcDbEntity
100
AcDbLine
8
MALLA_HORIZ_INFERIOR
10
25.6
20
5
30
0
11
29.6
21
5
31
0
0
LINE
5
2AF
330
11
100
AcDbEntity
100
AcDbLine
8
MALLA_HORIZ_INFERIOR
10
25.6
20
5.2
30
0
11
29.6
21
5.2
31
0
0
LINE
5
2B0
330
11
100
AcDbEntity
100
AcDbLine
8
MALLA_HORIZ_INFERIOR
10
25.6
20
5.4
30
0
11
29.6
21
5.4
31
0
0
LINE
5
2B1
330
11
100
AcDbEntity
100
AcDbLine
8
MALLA_HORIZ_INFERIOR
10
25.6
20
5.6
30
0
11
29.6
21
5.6
31
0
0
LINE
5
2B2
330
11
100
AcDbEntity
100
AcDbLine
8
MALLA_HORIZ_INFERIOR
10
25.6
20
5.800000000000001
30
0
11
29.6
21
5.800000000000001
31
0
0
LINE
5
2B3
330
11
100
AcDbEntity
100
AcDbLine
8
MALLA_HORIZ_INFERIOR
10
25.6
20
6
30
0
11
29.6
21
6
31
0
0
LINE
5
2B4
330
11
100
AcDbEntity
100
AcDbLine
8
MALLA_HORIZ_INFERIOR
10
25.6
20
6.2
30
0
11
29.6
21
6.2
31
0
0
LINE
5
2B5
330
11
100
AcDbEntity
100
AcDbLine
8
MALLA_HORIZ_INFERIOR
10
25.6
20
6.4
30
0
11
29.6
21
6.4
31
0
0
LINE
5
2B6
330
11
100
AcDbEntity
100
AcDbLine
8
MALLA_HORIZ_INFERIOR
10
25.6
20
6.6
30
0
11
29.6
21
6.6
31
0
0
LINE
5
2B7
330
11
100
AcDbEntity
100
AcDbLine
8
MALLA_HORIZ_INFERIOR
10
25.6
20
6.800000000000001
30
0
11
29.6
21
6.800000000000001
31
0
0
LINE
5
2B8
330
11
100
AcDbEntity
100
AcDbLine
8
MALLA_HORIZ_INFERIOR
10
25.6
20
7
30
0
11
29.6
21
7
31
0
0
LINE
5
2B9
330
11
100
AcDbEntity
100
AcDbLine
8
MALLA_HORIZ_INFERIOR
10
25.6
20
7.2
30
0
11
29.6
21
7.2
31
0
0
LINE
5
2BA
330
11
100
AcDbEntity
100
AcDbLine
8
MALLA_HORIZ_INFERIOR
10
25.6
20
7.4
30
0
11
29.6
21
7.4
31
0
0
LINE
5
2BB
330
11
100
AcDbEntity
100
AcDbLine
8
MALLA_HORIZ_INFERIOR
10
25.6
20
7.6000000000000005
30
0
11
29.6
21
7.6000000000000005
31
0
0
LINE
5
2BC
330
11
100
AcDbEntity
100
AcDbLine
8
MALLA_HORIZ_INFERIOR
10
25.6
20
7.800000000000001
30
0
11
29.6
21
7.800000000000001
31
0
0
LINE
5
2BD
330
11
100
AcDbEntity
100
AcDbLine
8
MALLA_HORIZ_INFERIOR
10
25.6
20
8
30
0
11
29.6
21
8
31
0
0
LINE
5
2BE
330
11
100
AcDbEntity
100
AcDbLine
8
MARCO_INFERIOR
10
25.6
20
3
30
0
11
29.6
21
3
31
0
0
LINE
5
2BF
330
11
100
AcDbEntity
100
AcDbLine
8
MARCO_INFERIOR
10
29.6
20
3
30
0
11
29.6
21
8.18
31
0
0
LINE
5
2C0
330
11
100
AcDbEntity
100
AcDbLine
8
MARCO_INFERIOR
10
29.6
20
8.18
30
0
11
25.6
21
8.18
31
0
0
LINE
5
2C1
330
11
100
AcDbEntity
100
AcDbLine
8
MARCO_INFERIOR
10
25.6
20
8.18
30
0
11
25.6
21
3
31
0
0
LINE
5
2C3
330
11
100
AcDbEntity
100
AcDbLine
8
COTAS_INFERIOR
10
25.6
20
3
30
0
11
25.6
21
2.8
31
0
0
LINE
5
2C4
330
11
100
AcDbEntity
100
AcDbLine
8
COTAS_INFERIOR
10
29.6
20
3
30
0
11
29.6
21
2.8
31
0
0
LINE
5
2C5
330
11
100
AcDbEntity
100
AcDbLine
8
COTAS_INFERIOR
10
25.6
20
2.9
30
0
11
29.6
21
2.9
31
0
0
LINE
5
2C6
330
11
100
AcDbEntity
100
AcDbLine
8
COTAS_INFERIOR
10
25.6
20
2.9
30
0
11
25.650000000000002
21
2.9499999999999997
31
0
0
LINE
5
2C7
330
11
100
AcDbEntity
100
AcDbLine
8
COTAS_INFERIOR
10
25.6
20
2.9
30
0
11
25.650000000000002
21
2.85
31
0
0
LINE
5
2C8
330
11
100
AcDbEntity
100
AcDbLine
8
COTAS_INFERIOR
10
29.6
20
2.9
30
0
11
29.55
21
2.9499999999999997
31
0
0
LINE
5
2C9
330
11
100
AcDbEntity
100
AcDbLine
8
COTAS_INFERIOR
10
29.6
20
2.9
30
0
11
29.55
21
2.85
31
0
0
TEXT
5
2CA
330
11
100
AcDbEntity
100
AcDbText
8
COTAS_INFERIOR
10
27.5
20
2.5
30
0
40
0.1
1
4.00m
50
0
100
AcDbText
0
LINE
5
2CB
330
11
100
AcDbEntity
100
AcDbLine
8
COTAS_INFERIOR
10
29.6
20
3
30
0
11
29.8
21
3
31
0
0
LINE
5
2CC
330
11
100
AcDbEntity
100
AcDbLine
8
COTAS_INFERIOR
10
29.6
20
8.18
30
0
11
29.8
21
8.18
31
0
0
LINE
5
2CD
330
11
100
AcDbEntity
100
AcDbLine
8
COTAS_INFERIOR
10
29.700000000000003
20
3
30
0
11
29.700000000000003
21
8.18
31
0
0
LINE
5
2CE
330
11
100
AcDbEntity
100
AcDbLine
8
COTAS_INFERIOR
10
29.700000000000003
20
3
30
0
11
29.750000000000004
21
3.05
31
0
0
LINE
5
2CF
330
11
100
AcDbEntity
100
AcDbLine
8
COTAS_INFERIOR
10
29.700000000000003
20
3
30
0
11
29.650000000000002
21
3.05
31
0
0
LINE
5
2D0
330
11
100
AcDbEntity
100
AcDbLine
8
COTAS_INFERIOR
10
29.700000000000003
20
8.18
30
0
11
29.750000000000004
21
8.129999999999999
31
0
0
LINE
5
2D1
330
11
100
AcDbEntity
100
AcDbLine
8
COTAS_INFERIOR
10
29.700000000000003
20
8.18
30
0
11
29.650000000000002
21
8.129999999999999
31
0
0
TEXT
5
2D2
330
11
100
AcDbEntity
100
AcDbText
8
COTAS_INFERIOR
10
29.900000000000002
20
5.49
30
0
40
0.1
1
5.18m
50
90
100
AcDbText
0
LINE
5
2D3
330
11
100
AcDbEntity
100
AcDbLine
8
COTAS_INFERIOR
10
25.6
20
8.18
30
0
11
25.6
21
8.58
31
0
0
LINE
5
2D4
330
11
100
AcDbEntity
100
AcDbLine
8
COTAS_INFERIOR
10
25.8
20
8.18
30
0
11
25.8
21
8.58
31
0
0
LINE
5
2D5
330
11
100
AcDbEntity
100
AcDbLine
8
COTAS_INFERIOR
10
25.6
20
8.48
30
0
11
25.8
21
8.48
31
0
0
LINE
5
2D6
330
11
100
AcDbEntity
100
AcDbLine
8
COTAS_INFERIOR
10
25.6
20
8.48
30
0
11
25.650000000000002
21
8.530000000000001
31
0
0
LINE
5
2D7
330
11
100
AcDbEntity
100
AcDbLine
8
COTAS_INFERIOR
10
25.6
20
8.48
30
0
11
25.650000000000002
21
8.43
31
0
0
LINE
5
2D8
330
11
100
AcDbEntity
100
AcDbLine
8
COTAS_INFERIOR
10
25.8
20
8.48
30
0
11
25.75
21
8.530000000000001
31
0
0
LINE
5
2D9
330
11
100
AcDbEntity
100
AcDbLine
8
COTAS_INFERIOR
10
25.8
20
8.48
30
0
11
25.75
21
8.43
31
0
0
TEXT
5
2DA
330
11
100
AcDbEntity
100
AcDbText
8
COTAS_INFERIOR
10
25.6
20
8.68
30
0
40
0.1
1
1∅1/2"@20cm
50
0
100
AcDbText
0
TEXT
5
2DC
330
11
100
AcDbEntity
100
AcDbText
8
INFO_INFERIOR
10
24.6
20
2
30
0
40
0.15
1
REFUERZO INFERIOR DE ZAPATA
50
0
100
AcDbText
0
TEXT
5
2DD
330
11
100
AcDbEntity
100
AcDbText
8
INFO_INFERIOR
10
24.6
20
1.7
30
0
40
0.1
1
ESC. 1:50
50
0
100
AcDbText
0
CIRCLE
5
2DE
330
11
100
AcDbEntity
100
AcDbCircle
8
INFO_INFERIOR
10
24.1
20
2
30
0
40
0.3
0
TEXT
5
2DF
330
11
100
AcDbEntity
100
AcDbText
8
INFO_INFERIOR
10
24.1
20
2
30
0
40
0.12
1
6
50
0
100
AcDbText
0
LINE
5
2E3
330
11
100
AcDbEntity
100
AcDbLine
8
MALLA_VERT_SUPERIOR
10
35.6
20
3
30
0
11
35.6
21
8.18
31
0
0
LINE
5
2E4
330
11
100
AcDbEntity
100
AcDbLine
8
MALLA_VERT_SUPERIOR
10
35.800000000000004
20
3
30
0
11
35.800000000000004
21
8.18
31
0
0
LINE
5
2E5
330
11
100
AcDbEntity
100
AcDbLine
8
MALLA_VERT_SUPERIOR
10
36
20
3
30
0
11
36
21
8.18
31
0
0
LINE
5
2E6
330
11
100
AcDbEntity
100
AcDbLine
8
MALLA_VERT_SUPERIOR
10
36.2
20
3
30
0
11
36.2
21
8.18
31
0
0
LINE
5
2E7
330
11
100
AcDbEntity
100
AcDbLine
8
MALLA_VERT_SUPERIOR
10
36.4
20
3
30
0
11
36.4
21
8.18
31
0
0
LINE
5
2E8
330
11
100
AcDbEntity
100
AcDbLine
8
MALLA_VERT_SUPERIOR
10
36.6
20
3
30
0
11
36.6
21
8.18
31
0
0
LINE
5
2E9
330
11
100
AcDbEntity
100
AcDbLine
8
MALLA_VERT_SUPERIOR
10
36.800000000000004
20
3
30
0
11
36.800000000000004
21
8.18
31
0
0
LINE
5
2EA
330
11
100
AcDbEntity
100
AcDbLine
8
MALLA_VERT_SUPERIOR
10
37
20
3
30
0
11
37
21
8.18
31
0
0
LINE
5
2EB
330
11
100
AcDbEntity
100
AcDbLine
8
MALLA_VERT_SUPERIOR
10
37.2
20
3
30
0
11
37.2
21
8.18
31
0
0
LINE
5
2EC
330
11
100
AcDbEntity
100
AcDbLine
8
MALLA_VERT_SUPERIOR
10
37.4
20
3
30
0
11
37.4
21
8.18
31
0
0
LINE
5
2ED
330
11
100
AcDbEntity
100
AcDbLine
8
MALLA_VERT_SUPERIOR
10
37.6
20
3
30
0
11
37.6
21
8.18
31
0
0
LINE
5
2EE
330
11
100
AcDbEntity
100
AcDbLine
8
MALLA_VERT_SUPERIOR
10
37.800000000000004
20
3
30
0
11
37.800000000000004
21
8.18
31
0
0
LINE
5
2EF
330
11
100
AcDbEntity
100
AcDbLine
8
MALLA_VERT_SUPERIOR
10
38
20
3
30
0
11
38
21
8.18
31
0
0
LINE
5
2F0
330
11
100
AcDbEntity
100
AcDbLine
8
MALLA_VERT_SUPERIOR
10
38.2
20
3
30
0
11
38.2
21
8.18
31
0
0
LINE
5
2F1
330
11
100
AcDbEntity
100
AcDbLine
8
MALLA_VERT_SUPERIOR
10
38.4
20
3
30
0
11
38.4
21
8.18
31
0
0
LINE
5
2F2
330
11
100
AcDbEntity
100
AcDbLine
8
MALLA_VERT_SUPERIOR
10
38.6
20
3
30
0
11
38.6
21
8.18
31
0
0
LINE
5
2F3
330
11
100
AcDbEntity
100
AcDbLine
8
MALLA_VERT_SUPERIOR
10
38.800000000000004
20
3
30
0
11
38.800000000000004
21
8.18
31
0
0
LINE
5
2F4
330
11
100
AcDbEntity
100
AcDbLine
8
MALLA_VERT_SUPERIOR
10
39
20
3
30
0
11
39
21
8.18
31
0
0
LINE
5
2F5
330
11
100
AcDbEntity
100
AcDbLine
8
MALLA_VERT_SUPERIOR
10
39.2
20
3
30
0
11
39.2
21
8.18
31
0
0
LINE
5
2F6
330
11
100
AcDbEntity
100
AcDbLine
8
MALLA_VERT_SUPERIOR
10
39.400000000000006
20
3
30
0
11
39.400000000000006
21
8.18
31
0
0
LINE
5
2F7
330
11
100
AcDbEntity
100
AcDbLine
8
MALLA_VERT_SUPERIOR
10
39.6
20
3
30
0
11
39.6
21
8.18
31
0
0
LINE
5
2F8
330
11
100
AcDbEntity
100
AcDbLine
8
MALLA_HORIZ_SUPERIOR
10
35.6
20
3
30
0
11
39.6
21
3
31
0
0
LINE
5
2F9
330
11
100
AcDbEntity
100
AcDbLine
8
MALLA_HORIZ_SUPERIOR
10
35.6
20
3.2
30
0
11
39.6
21
3.2
31
0
0
LINE
5
2FA
330
11
100
AcDbEntity
100
AcDbLine
8
MALLA_HORIZ_SUPERIOR
10
35.6
20
3.4
30
0
11
39.6
21
3.4
31
0
0
LINE
5
2FB
330
11
100
AcDbEntity
100
AcDbLine
8
MALLA_HORIZ_SUPERIOR
10
35.6
20
3.6
30
0
11
39.6
21
3.6
31
0
0
LINE
5
2FC
330
11
100
AcDbEntity
100
AcDbLine
8
MALLA_HORIZ_SUPERIOR
10
35.6
20
3.8
30
0
11
39.6
21
3.8
31
0
0
LINE
5
2FD
330
11
100
AcDbEntity
100
AcDbLine
8
MALLA_HORIZ_SUPERIOR
10
35.6
20
4
30
0
11
39.6
21
4
31
0
0
LINE
5
2FE
330
11
100
AcDbEntity
100
AcDbLine
8
MALLA_HORIZ_SUPERIOR
10
35.6
20
4.2
30
0
11
39.6
21
4.2
31
0
0
LINE
5
2FF
330
11
100
AcDbEntity
100
AcDbLine
8
MALLA_HORIZ_SUPERIOR
10
35.6
20
4.4
30
0
11
39.6
21
4.4
31
0
0
LINE
5
300
330
11
100
AcDbEntity
100
AcDbLine
8
MALLA_HORIZ_SUPERIOR
10
35.6
20
4.6
30
0
11
39.6
21
4.6
31
0
0
LINE
5
301
330
11
100
AcDbEntity
100
AcDbLine
8
MALLA_HORIZ_SUPERIOR
10
35.6
20
4.8
30
0
11
39.6
21
4.8
31
0
0
LINE
5
302
330
11
100
AcDbEntity
100
AcDbLine
8
MALLA_HORIZ_SUPERIOR
10
35.6
20
5
30
0
11
39.6
21
5
31
0
0
LINE
5
303
330
11
100
AcDbEntity
100
AcDbLine
8
MALLA_HORIZ_SUPERIOR
10
35.6
20
5.2
30
0
11
39.6
21
5.2
31
0
0
LINE
5
304
330
11
100
AcDbEntity
100
AcDbLine
8
MALLA_HORIZ_SUPERIOR
10
35.6
20
5.4
30
0
11
39.6
21
5.4
31
0
0
LINE
5
305
330
11
100
AcDbEntity
100
AcDbLine
8
MALLA_HORIZ_SUPERIOR
10
35.6
20
5.6
30
0
11
39.6
21
5.6
31
0
0
LINE
5
306
330
11
100
AcDbEntity
100
AcDbLine
8
MALLA_HORIZ_SUPERIOR
10
35.6
20
5.800000000000001
30
0
11
39.6
21
5.800000000000001
31
0
0
LINE
5
307
330
11
100
AcDbEntity
100
AcDbLine
8
MALLA_HORIZ_SUPERIOR
10
35.6
20
6
30
0
11
39.6
21
6
31
0
0
LINE
5
308
330
11
100
AcDbEntity
100
AcDbLine
8
MALLA_HORIZ_SUPERIOR
10
35.6
20
6.2
30
0
11
39.6
21
6.2
31
0
0
LINE
5
309
330
11
100
AcDbEntity
100
AcDbLine
8
MALLA_HORIZ_SUPERIOR
10
35.6
20
6.4
30
0
11
39.6
21
6.4
31
0
0
LINE
5
30A
330
11
100
AcDbEntity
100
AcDbLine
8
MALLA_HORIZ_SUPERIOR
10
35.6
20
6.6
30
0
11
39.6
21
6.6
31
0
0
LINE
5
30B
330
11
100
AcDbEntity
100
AcDbLine
8
MALLA_HORIZ_SUPERIOR
10
35.6
20
6.800000000000001
30
0
11
39.6
21
6.800000000000001
31
0
0
LINE
5
30C
330
11
100
AcDbEntity
100
AcDbLine
8
MALLA_HORIZ_SUPERIOR
10
35.6
20
7
30
0
11
39.6
21
7
31
0
0
LINE
5
30D
330
11
100
AcDbEntity
100
AcDbLine
8
MALLA_HORIZ_SUPERIOR
10
35.6
20
7.2
30
0
11
39.6
21
7.2
31
0
0
LINE
5
30E
330
11
100
AcDbEntity
100
AcDbLine
8
MALLA_HORIZ_SUPERIOR
10
35.6
20
7.4
30
0
11
39.6
21
7.4
31
0
0
LINE
5
30F
330
11
100
AcDbEntity
100
AcDbLine
8
MALLA_HORIZ_SUPERIOR
10
35.6
20
7.6000000000000005
30
0
11
39.6
21
7.6000000000000005
31
0
0
LINE
5
310
330
11
100
AcDbEntity
100
AcDbLine
8
MALLA_HORIZ_SUPERIOR
10
35.6
20
7.800000000000001
30
0
11
39.6
21
7.800000000000001
31
0
0
LINE
5
311
330
11
100
AcDbEntity
100
AcDbLine
8
MALLA_HORIZ_SUPERIOR
10
35.6
20
8
30
0
11
39.6
21
8
31
0
0
LINE
5
312
330
11
100
AcDbEntity
100
AcDbLine
8
MARCO_SUPERIOR
10
35.6
20
3
30
0
11
39.6
21
3
31
0
0
LINE
5
313
330
11
100
AcDbEntity
100
AcDbLine
8
MARCO_SUPERIOR
10
39.6
20
3
30
0
11
39.6
21
8.18
31
0
0
LINE
5
314
330
11
100
AcDbEntity
100
AcDbLine
8
MARCO_SUPERIOR
10
39.6
20
8.18
30
0
11
35.6
21
8.18
31
0
0
LINE
5
315
330
11
100
AcDbEntity
100
AcDbLine
8
MARCO_SUPERIOR
10
35.6
20
8.18
30
0
11
35.6
21
3
31
0
0
LINE
5
317
330
11
100
AcDbEntity
100
AcDbLine
8
COTAS_SUPERIOR
10
35.6
20
3
30
0
11
35.6
21
2.8
31
0
0
LINE
5
318
330
11
100
AcDbEntity
100
AcDbLine
8
COTAS_SUPERIOR
10
39.6
20
3
30
0
11
39.6
21
2.8
31
0
0
LINE
5
319
330
11
100
AcDbEntity
100
AcDbLine
8
COTAS_SUPERIOR
10
35.6
20
2.9
30
0
11
39.6
21
2.9
31
0
0
LINE
5
31A
330
11
100
AcDbEntity
100
AcDbLine
8
COTAS_SUPERIOR
10
35.6
20
2.9
30
0
11
35.65
21
2.9499999999999997
31
0
0
LINE
5
31B
330
11
100
AcDbEntity
100
AcDbLine
8
COTAS_SUPERIOR
10
35.6
20
2.9
30
0
11
35.65
21
2.85
31
0
0
LINE
5
31C
330
11
100
AcDbEntity
100
AcDbLine
8
COTAS_SUPERIOR
10
39.6
20
2.9
30
0
11
39.550000000000004
21
2.9499999999999997
31
0
0
LINE
5
31D
330
11
100
AcDbEntity
100
AcDbLine
8
COTAS_SUPERIOR
10
39.6
20
2.9
30
0
11
39.550000000000004
21
2.85
31
0
0
TEXT
5
31E
330
11
100
AcDbEntity
100
AcDbText
8
COTAS_SUPERIOR
10
37.5
20
2.5
30
0
40
0.1
1
4.00m
50
0
100
AcDbText
0
LINE
5
31F
330
11
100
AcDbEntity
100
AcDbLine
8
COTAS_SUPERIOR
10
39.6
20
3
30
0
11
39.800000000000004
21
3
31
0
0
LINE
5
320
330
11
100
AcDbEntity
100
AcDbLine
8
COTAS_SUPERIOR
10
39.6
20
8.18
30
0
11
39.800000000000004
21
8.18
31
0
0
LINE
5
321
330
11
100
AcDbEntity
100
AcDbLine
8
COTAS_SUPERIOR
10
39.7
20
3
30
0
11
39.7
21
8.18
31
0
0
LINE
5
322
330
11
100
AcDbEntity
100
AcDbLine
8
COTAS_SUPERIOR
10
39.7
20
3
30
0
11
39.75
21
3.05
31
0
0
LINE
5
323
330
11
100
AcDbEntity
100
AcDbLine
8
COTAS_SUPERIOR
10
39.7
20
3
30
0
11
39.650000000000006
21
3.05
31
0
0
LINE
5
324
330
11
100
AcDbEntity
100
AcDbLine
8
COTAS_SUPERIOR
10
39.7
20
8.18
30
0
11
39.75
21
8.129999999999999
31
0
0
LINE
5
325
330
11
100
AcDbEntity
100
AcDbLine
8
COTAS_SUPERIOR
10
39.7
20
8.18
30
0
11
39.650000000000006
21
8.129999999999999
31
0
0
TEXT
5
326
330
11
100
AcDbEntity
100
AcDbText
8
COTAS_SUPERIOR
10
39.900000000000006
20
5.49
30
0
40
0.1
1
5.18m
50
90
100
AcDbText
0
LINE
5
327
330
11
100
AcDbEntity
100
AcDbLine
8
COTAS_SUPERIOR
10
35.6
20
8.18
30
0
11
35.6
21
8.58
31
0
0
LINE
5
328
330
11
100
AcDbEntity
100
AcDbLine
8
COTAS_SUPERIOR
10
35.800000000000004
20
8.18
30
0
11
35.800000000000004
21
8.58
31
0
0
LINE
5
329
330
11
100
AcDbEntity
100
AcDbLine
8
COTAS_SUPERIOR
10
35.6
20
8.48
30
0
11
35.800000000000004
21
8.48
31
0
0
LINE
5
32A
330
11
100
AcDbEntity
100
AcDbLine
8
COTAS_SUPERIOR
10
35.6
20
8.48
30
0
11
35.65
21
8.530000000000001
31
0
0
LINE
5
32B
330
11
100
AcDbEntity
100
AcDbLine
8
COTAS_SUPERIOR
10
35.6
20
8.48
30
0
11
35.65
21
8.43
31
0
0
LINE
5
32C
330
11
100
AcDbEntity
100
AcDbLine
8
COTAS_SUPERIOR
10
35.800000000000004
20
8.48
30
0
11
35.75000000000001
21
8.530000000000001
31
0
0
LINE
5
32D
330
11
100
AcDbEntity
100
AcDbLine
8
COTAS_SUPERIOR
10
35.800000000000004
20
8.48
30
0
11
35.75000000000001
21
8.43
31
0
0
TEXT
5
32E
330
11
100
AcDbEntity
100
AcDbText
8
COTAS_SUPERIOR
10
35.6
20
8.68
30
0
40
0.1
1
1∅1/2"@20cm
50
0
100
AcDbText
0
TEXT
5
330
330
11
100
AcDbEntity
100
AcDbText
8
INFO_SUPERIOR
10
34.6
20
2
30
0
40
0.15
1
REFUERZO SUPERIOR DE ZAPATA
50
0
100
AcDbText
0
TEXT
5
331
330
11
100
AcDbEntity
100
AcDbText
8
INFO_SUPERIOR
10
34.6
20
1.7
30
0
40
0.1
1
ESC. 1:50
50
0
100
AcDbText
0
CIRCLE
5
332
330
11
100
AcDbEntity
100
AcDbCircle
8
INFO_SUPERIOR
10
34.1
20
2
30
0
40
0.3
0
TEXT
5
333
330
11
100
AcDbEntity
100
AcDbText
8
INFO_SUPERIOR
10
34.1
20
2
30
0
40
0.12
1
7
50
0
100
AcDbText
0
ENDSEC
0
SECTION
2
OBJECTS
0
DICTIONARY
5
1
330
0
100
AcDbDictionary
281
1
3
ACAD_GROUP
350
15
0
DICTIONARY
5
15
330
1
100
AcDbDictionary
281
1
0
ENDSEC
0
EOF